<?xml version="1.0" encoding="utf-8"?>
<!-- Generator: Adobe Illustrator 26.2.1, SVG Export Plug-In . SVG Version: 6.00 Build 0)  -->
<svg version="1.1" id="Calque_1" xmlns="http://www.w3.org/2000/svg" xmlns:xlink="http://www.w3.org/1999/xlink" x="0px" y="0px"
	 viewBox="0 0 151.7 111.9" style="enable-background:new 0 0 151.7 111.9;" xml:space="preserve">
<style type="text/css">
	.st0{fill:#020203;stroke:#000000;stroke-miterlimit:10;}
	.st1{stroke:#000000;stroke-miterlimit:10;}
	.st2{fill:#FFFFFF;stroke:#000000;stroke-miterlimit:10;}
	.st3{fill:#010202;stroke:#000000;stroke-miterlimit:10;}
</style>
<rect x="38" y="54.6" transform="matrix(6.123234e-17 -1 1 6.123234e-17 -28.6339 124.6875)" class="st0" width="20.1" height="44.1"/>
<path class="st1" d="M6.8,102l11.1,4.3c2.1,0.8,4.5-0.2,5.3-2.4l33.2-86.3c0.8-2.1-0.2-4.5-2.4-5.3L43,8c-2.1-0.8-4.5,0.2-5.3,2.4
	L4.5,96.7C3.7,98.8,4.7,101.2,6.8,102z"/>
<path class="st2" d="M51.9,3.4l-11,3.5c-2.3,0.7-3.5,3.1-2.8,5.4l27.8,87.9c0.7,2.3,3.1,3.5,5.4,2.8l11-3.5c2.3-0.7,3.5-3.1,2.8-5.4
	L57.3,6.2C56.6,4,54.2,2.7,51.9,3.4z"/>
<path class="st3" d="M69,103.5l10.9,4.2c2.2,0.8,4.6-0.2,5.4-2.4l33.2-86.1c0.8-2.2-0.2-4.6-2.4-5.4l-10.9-4.2
	c-2.2-0.8-4.6,0.2-5.4,2.4L66.6,98C65.7,100.2,66.8,102.7,69,103.5z"/>
<path class="st2" d="M114,5.1l-11.2,3.6c-2.2,0.7-3.4,3-2.7,5.2l27.9,88.1c0.7,2.2,3,3.4,5.2,2.7l11.2-3.6c2.2-0.7,3.4-3,2.7-5.2
	L119.2,7.9C118.5,5.7,116.2,4.4,114,5.1z"/>
</svg>
