<?xml version="1.0" encoding="utf-8"?>
<!-- Generator: Adobe Illustrator 26.2.1, SVG Export Plug-In . SVG Version: 6.00 Build 0)  -->
<svg version="1.1" id="Calque_1" xmlns="http://www.w3.org/2000/svg" xmlns:xlink="http://www.w3.org/1999/xlink" x="0px" y="0px"
	 viewBox="0 0 1920 1080" style="enable-background:new 0 0 1920 1080;" xml:space="preserve">
<style type="text/css">
	.st0{fill:#662D91;}
	.st1{fill-rule:evenodd;clip-rule:evenodd;fill:#662D91;}
	.st2{fill-rule:evenodd;clip-rule:evenodd;}
</style>
<g>
	<g>
		<g>
			<g>
				<path class="st0" d="M1744.8,116c4.3-2.5-2.4-8.6-3.5-3.7C1743.4,114.2,1742.9,115.1,1744.8,116z M1718.9,136.8
					c1.3,2.4,3.1,4.5-0.3,5.6c2.7,1.9,3.5,5.5,4,8.5c3.9,2.7,5.2,5.2,6.6,8.7c4.5-2.3,9.2,0.6,13.7,1.9c1.3-2.7,3.5-3.8,6-2.1
					c4.7-3.3,3.2-8.2,8.9-10.1c-3.4-5.6-0.8-10.7-2.4-16.1c-1.3,0.5-2.6,0.7-3.9-0.7c-0.9-1.5,0.7-2.8-0.9-4.4
					c-2.6,1.2-5.4-0.7-6.9-4c-4.3,1.3-8.6,0.8-12.9-1c0.3,4.3-5.2,4.5-7.7,4.6C1721.2,131.2,1722.7,134,1718.9,136.8z M1805.2,203.9
					c2.9,5.4,9.2,6.6,13.3,3.2c-2.8-4.4-8.8-6.7-12.9-4.4C1805.8,203.1,1805.8,203.5,1805.2,203.9z M1827.9,261
					c1.6-1.4,2.2-0.9,3-2.8c-2.4-2.6-1.4-6-3.1-9.3c-1.7-3.1-5.7-5.3-5.3-9c-2.4,0.7-4.7-0.9-6.1-3.9c-4.1,2.7-8.3-2.3-12.4,2.1
					c-0.7-0.8-1.4-1.3-2.2-1.5c-1.6,0.9,0.4,2-1.2,2.9c-1.6,0.7-3.2-1.4-4.7,0.1c1.7,3.6-1.4,6.8-3.3,10.1c1.6,3.7-0.5,7.1,1.4,10.8
					c-4.8-2.5-9.5-3.9-14.1,0.2c4.9,14.3,20.9,0.4,28.5,13.3c6.4-2.1,15.1-0.6,17.9-9c1.6-0.4,3.2,1.4,4.7-0.1
					C1830.2,263.8,1827.3,262.3,1827.9,261z M1620.3,132.8c-1.9-3.2-3-6.2-4.8-9.4C1612.9,125.9,1618.1,131.3,1620.3,132.8z
					 M1753.6,343.9c-0.3,2.7,3.9,5.9,6.1,3.9C1760.9,344.7,1756,341.6,1753.6,343.9z M1532.8,252.4c-1.6-2.2-3.2-0.6-4.8-2.5
					c-1.4-2.8,1-5.4,2-8c-1.5-2.2-2.9-0.3-4.3-2.9c-0.7-1.9,0.1-3.7,0.3-5.6c-4.8-3.5-3.4-6.6-4.4-9.8c-1.4-0.2-2.8,0.9-4.3-0.3
					c-2.5-6-8.3-1.5-10.8-8.1c-6.3,3-12.8,1.5-18.1-4.8c-2.7,2.2,1,4.9-0.3,7.3c-2.9,4.3-6,2.8-8.9,4.9c-0.9,3.8-3.3,8.2-7.1,12.8
					c2.3,2.3,1,4.4,0.5,6.5c2.6,2.2,3.6,4.3,2.7,6.2c-1.8,2.7-3.7,1.7-5.5,3.4c3,1.3,6,1.7,9.1,4.6c0.5,3.3-0.2,6.6,4.9,10.2
					c1.6-1,3.1-0.9,4.7-0.1c0.8,1.9-1.4,3.6,0.5,5.6c2.3,0.7,4.1-5.3,7.2-2.5c1.9,1.9-0.7,3.4,1.8,5.3c2.4-1.3,3.2-2,4.7-4.4
					c4.6,1.4,1.4,5.7,4,6.7c1.8-1.7-0.6-3.8,1.2-5.5c4.6-0.3,6.9-7.8,11.9-6.8c2.9,1.2,6.9,9.9,11.7,10.8
					C1520.4,268.4,1521,254,1532.8,252.4z M1632.5,356.6c-0.9,5.2,4.7,6.9,8.8,12.7C1642.8,365.4,1636.5,359.6,1632.5,356.6z
					 M1527.7,279.1c2.5,3.8,5.3,7.6,8.3,11.4C1536.6,287.2,1530.9,281.2,1527.7,279.1z M1450.1,220.4c1.5-4.8-5-6.7-7.8-4.9
					c-3.4,2.3-0.8,6.7-3.3,9.2c3.9,7.8,10.3,0.9,15.4,1.2c0.4-0.8,0.4-1.7,0.8-2.5C1453.5,220.9,1451.8,220.9,1450.1,220.4z
					 M1594.4,386.4c-2.3,2.4,1.8,7.1,3.1,8.4C1598.7,392.1,1596.1,389.2,1594.4,386.4z M1566,383.4c2.8-4.4,4.6-8.8,4.9-13.4
					C1568.1,374.4,1566.6,378.8,1566,383.4z M1777.9,271.4l1.7-1.6c-1.7-3.3-1.6-2.6-5.2-3.8c-0.4-2.9-2.5-3.2-3.1-5.8
					c-2.6,0.9-5.1,0.9-7.8-3.2c-5,1.7-11.8-0.3-16.2,3.9c-2.4,2.2-2.2,7.1-5.9,7.3c0.2-14.6-24.7-25.4-31-37.1
					c4.4-1.9,8.8-2.7,13.2-4.6c2,1.3,5.8,1.7,6.4-1.7c-7.8-4.4-15.4,3.1-23.2-1.8c0.2-4.9-1.7-8.4-1.9-13.9
					c5.9-6.2,5.9-12.3,7.4-18.3c0.6-2.5,3.2-4.2,0.8-6.8c-0.9,0.3-1.7,0.2-2.6-0.2c-2.8,1.9-1.8,4.2-4.6,6.1
					c-6.9-2.5-11.4-13.4-14-20.8c-3.2,1.9-2.3,4.1-4.6,6.1c-6.8-2.7-6.4-8.8-12.6-11.7c-0.9-3.9,1.1-7.6-1.5-11.7
					c-0.5-5.3,3.9-10.3,1.9-15.7c-3,2.6-1.9,4.4-2.5,7.5c-0.7,3.5-3,8.5-3.3,11.8c-0.4,4.3,1.4,7.8-1.1,9.8c-3.4,2.8-7.4-1.2-12-2.6
					c-14.4,8.1-24.6-9.9-31.2-23c2.8,8.7,9,17.6,10.2,26.1c-5.7-1.1-11.5-1.8-17.2-0.4c-2.4-2.9-1-5.5-4.8-8.5
					c-2.7,1.8,0.7,4.1,0.1,6c-8.3-5.8-5.3-14.1-14-20.8c0.5-0.7,0-1.4,0.4-2.1c1.3-1.8,2.6-0.5,3.8-1.9c-0.5-3.4,0-6.8,2.9-8.8
					c-1.7-4.6-2.5-9.1,1.1-13.2c-1.8-2.6-3.4,0.9-5.2-2.1c2.3-4.6-2.2-4.6-4-9.3c-1.1,0.1-2.3,1.1-3.4,0.6c-3.7-6-7.2-2.7-10.8-4.7
					c-1.9-4.1-1-7.8-5.7-10.3c-2.2,2.3,3.3,5.1,2.3,7.5c-5.5,2-11.1,4.9-16.6,6c0.7,3-0.7,6.4-4.6,7.8c0.3,5.1,0.2,10.7-1.5,14.5
					c1.3,2,2.6,0.9,3.9,2.4c0.4,2.3,0.8,4.6-0.8,6.8c6.5,2.4,11,7.6,16.5,11.6c1.3,0.2,2.5-2.1,3.8-1.9c1.4,1.3,2.9,2.2,4.3,2.9
					c1.6,0.7,1.7-2.4,2.6-1.5c5.2,7.1,15.4,16.2,16.2,24.8c-3.2,5.7-6.7,11-13.5,12.7c-1.3-0.3-2.6-3.4-4.8-5.1
					c-0.8-1.5,1.4-2.8-0.1-4.3c-9-6.8-17.8-9-26.7-5.5c-1.8,2.6-3.7,5.2-6.3,7.7c-2.1,6.1,0.8,12.7,0.3,18.9
					c2.6-0.7,5.6,3.1,6.1,5.6c7.3,2.9,14.7,5.6,21.9,2.1c6.5,6.9,0.6,12.9,2.4,19.5c-7.5,4.7-15,7.8-22.6,11.6
					c5.7,1.1,12.1-2.5,18.8-7.2c2.3,1.5,4.6,1.8,6.9,3.1c0.1,2.2,1.6,4.4-0.3,6.4c-1.5,1.5-3.1-0.2-4.7,0.9
					c5.6,4.9,14.2,13.1,5.9,19.8c1.8,3.3,3.4,0.1,5.2,2.1c1.2,7.1-9.9,19.4-16.4,20.7c0.5-5.7,5.9-10.1,0.2-15
					c-5.6-4.9-13.7,0.8-14.4,8.4c3,6.1,4.2,12.9,11.7,10.8c0.7,8.6-11.8,14.5-18.7,12.3c-2.2-1.5-4.3-3-6.5-1.8
					c0.2,0.5,0.1,0.9-0.4,1.3c0.7,2.5,4.5,5.2,6.5,7.8c-0.9,3.2-0.8,6.5-3.7,9.6c-2.6,0-7.5-2.8-8.6,0.2c3.3-0.8,8.7,3.6,9.5,7.6
					c-1.4,1.6-2.3,3.3-3.4,4.9c2,4.4,1.8,9.6,6.6,13c-0.2,2.4-3.6,4.6-2.9,7.1c2.3,2.9,4.6-0.8,6.9,2.2c-0.3,2.3-5.4,4.2-2.5,6.7
					c2.3,1.4,4.5-2.3,6.8-2.1c4.6,3,5.7,6.2,9.1,9.7c-0.1,1.1-1.2,2.2-0.8,3.4c1-0.4,0.5-3,2.1-2c1.8,2,0.2,3.7,3.1,5.8
					c1.8-1.7,2.2-3.8,4.7-4.4c8.8,8.4,17.5,1.9,26.2,2.4c6.3,4.8,6.8,11.4,10.5,14.5c-0.6-2.5-3.1-5.1-2.3-7.5
					c2-0.1,4.8,1.9,5.6-0.9c-2.6-3.1-5.2-2.4-7.8-3.2c-0.5-2.3-3.7-4.9-2.7-7.1c2.7-3.5,5.4-2.1,8.1-2.4c1.7-2.3,1.2-4.8,3.8-7
					c2-1.3,4,2.6,6,0.5c1.6-1.7-1.9-3.9-2.2-5.8c2.5-3.5,3.6-3,6.8-5.5c-2.1-3.9-3.6-7.7,0.7-11.1c-2.9-4.1-5-8.1-0.6-11.6
					c0.3-1.8-2-3.9-1.4-5.7c0.6,0.4,3.3-0.1,2.5-1.5c-3.5,1.4-6.7-5.7-7-8.3c-2-1.5-4,0.4-6-2.2c0.6-1,0.1-2,1.2-2.9
					c5,1.3,10.1,8.5,15.2,10.2c4.5-4.3,6.8-10.8,14-12.3c0.4,0.5,0.9,0.2,1.3,0.5c0,1.4,0.8,2.9,2.6,4.5c-1.5,9,5.1,16.2,6.8,25
					c2.1-7.6-10-19.9,2.2-28.2c-2.2-3.6-6.1,1.2-6.9-2.2c4.4-2.2,8.9,1.3,13.3,0.6c13.5,8.4,11,24.4,24.5,31.9
					c14.6-7.9-9.5-28.7-1.8-37.5c4.8-5.5,8,1.2,12.9,3.6c2.3-4.3-5.5-7.3-4.9-11.1c3.5-3.7,7.1,0.3,10.7,1.2
					c3.4-4.6,7.1-1.3,11.5-2.1c1.2-3.2-3.5-6.9-1.4-10c5.7-0.6,16.3-3.7,18.1,5.7c4.4,0.8,4.1,4.5,4.4,8.1c3.4-0.1,4.2,2.6,6.1,5.6
					c6.5-0.4,16.3,4.5,20.1-4.1c1.8-1.4,3.7,0.1,5.5-1.7C1776.9,282.5,1781.7,277.3,1777.9,271.4z M1612.3,289.4
					c1.7,1,4.2,4.2,1.8,6.2C1611.4,294.8,1610.9,291.2,1612.3,289.4z M1661.3,300.8c1.3,2.8-1.4,5.3-2,8
					C1657.6,306.1,1656.8,300.5,1661.3,300.8z M1581.4,260.8c-5.3-1.6-12.9-3.6-16.8-2.6C1570.2,259.4,1575.8,261.7,1581.4,260.8z
					 M1531.9,276.9c1.7,0.2,5.5,7.7,8.7,6.7C1538,280.7,1533,275,1531.9,276.9z"/>
			</g>
		</g>
		<g>
			<g>
				<path class="st0" d="M1745.6,116.2c4.3-2.5-2.4-8.6-3.5-3.7C1744.2,114.4,1743.7,115.4,1745.6,116.2z M1719.7,137
					c1.3,2.4,3.1,4.5-0.3,5.6c2.7,1.9,3.5,5.5,4,8.5c3.9,2.7,5.2,5.2,6.6,8.7c4.5-2.3,9.2,0.6,13.7,1.9c1.3-2.7,3.5-3.8,6-2.1
					c4.7-3.3,3.2-8.2,8.9-10.1c-3.4-5.6-0.8-10.7-2.4-16.1c-1.3,0.5-2.6,0.7-3.9-0.7c-0.9-1.5,0.7-2.8-0.9-4.4
					c-2.6,1.2-5.4-0.7-6.9-4c-4.3,1.3-8.6,0.8-12.9-1c0.3,4.3-5.2,4.5-7.7,4.6C1722,131.4,1723.5,134.2,1719.7,137z M1806,204.1
					c2.9,5.4,9.2,6.6,13.3,3.2c-2.8-4.4-8.8-6.7-12.9-4.4C1806.7,203.3,1806.6,203.7,1806,204.1z M1828.7,261.2
					c1.6-1.4,2.2-0.9,3-2.8c-2.4-2.6-1.4-6-3.1-9.3c-1.7-3.1-5.7-5.3-5.3-9c-2.4,0.7-4.7-0.9-6.1-3.9c-4.1,2.7-8.3-2.3-12.4,2.1
					c-0.7-0.8-1.4-1.3-2.2-1.5c-1.6,0.9,0.4,2-1.2,2.9c-1.6,0.7-3.2-1.4-4.7,0.1c1.7,3.6-1.4,6.8-3.3,10.1c1.6,3.7-0.5,7.1,1.4,10.8
					c-4.8-2.5-9.5-3.9-14.1,0.2c4.9,14.3,20.9,0.4,28.5,13.3c6.4-2.1,15.1-0.6,17.9-9c1.6-0.4,3.2,1.4,4.7-0.1
					C1831,264,1828.1,262.5,1828.7,261.2z M1621.1,133c-1.9-3.2-3-6.2-4.8-9.4C1613.8,126.2,1619,131.5,1621.1,133z M1754.5,344.1
					c-0.3,2.7,3.9,5.9,6.1,3.9C1761.7,344.9,1756.8,341.8,1754.5,344.1z M1533.7,252.7c-1.6-2.2-3.2-0.6-4.8-2.5c-1.4-2.8,1-5.4,2-8
					c-1.5-2.2-2.9-0.3-4.3-2.9c-0.7-1.9,0.1-3.7,0.3-5.6c-4.8-3.5-3.4-6.6-4.4-9.8c-1.4-0.2-2.8,0.9-4.3-0.3
					c-2.5-6-8.3-1.5-10.8-8.1c-6.3,3-12.8,1.5-18.1-4.8c-2.7,2.2,1,4.9-0.3,7.3c-2.9,4.3-6,2.8-8.9,4.9c-0.9,3.8-3.3,8.2-7.1,12.8
					c2.3,2.3,1,4.4,0.5,6.5c2.6,2.2,3.6,4.3,2.7,6.2c-1.8,2.7-3.7,1.7-5.5,3.4c3,1.3,6,1.7,9.1,4.6c0.5,3.3-0.2,6.6,4.9,10.2
					c1.6-1,3.1-0.9,4.7-0.1c0.8,1.9-1.4,3.6,0.5,5.6c2.3,0.7,4.1-5.3,7.2-2.5c1.9,1.9-0.7,3.4,1.8,5.3c2.4-1.3,3.2-2,4.7-4.4
					c4.6,1.4,1.4,5.7,4,6.7c1.8-1.7-0.6-3.8,1.2-5.5c4.6-0.3,6.9-7.8,11.9-6.8c2.9,1.2,6.9,9.9,11.7,10.8
					C1521.2,268.7,1521.8,254.2,1533.7,252.7z M1633.3,356.8c-0.9,5.2,4.7,6.9,8.8,12.7C1643.6,365.7,1637.4,359.8,1633.3,356.8z
					 M1528.5,279.3c2.5,3.8,5.3,7.6,8.3,11.4C1537.5,287.4,1531.7,281.4,1528.5,279.3z M1450.9,220.6c1.5-4.8-5-6.7-7.8-4.9
					c-3.4,2.3-0.8,6.7-3.3,9.2c3.9,7.8,10.3,0.9,15.4,1.2c0.4-0.8,0.4-1.7,0.8-2.5C1454.3,221.1,1452.6,221.1,1450.9,220.6z
					 M1595.2,386.6c-2.3,2.4,1.8,7.1,3.1,8.4C1599.5,392.4,1597,389.5,1595.2,386.6z M1566.9,383.6c2.8-4.4,4.6-8.8,4.9-13.4
					C1569,374.6,1567.4,379.1,1566.9,383.6z M1778.7,271.6l1.7-1.6c-1.7-3.3-1.6-2.6-5.2-3.8c-0.4-2.9-2.5-3.2-3.1-5.8
					c-2.6,0.9-5.1,0.9-7.8-3.2c-5,1.7-11.8-0.3-16.2,3.9c-2.4,2.2-2.2,7.1-5.9,7.3c0.2-14.6-24.7-25.4-31-37.1
					c4.4-1.9,8.8-2.7,13.2-4.6c2,1.3,5.8,1.7,6.4-1.7c-7.8-4.4-15.4,3.1-23.2-1.8c0.2-4.9-1.7-8.4-1.9-13.9
					c5.9-6.2,5.9-12.3,7.4-18.3c0.6-2.5,3.2-4.2,0.8-6.8c-0.9,0.3-1.7,0.2-2.6-0.2c-2.8,1.9-1.8,4.2-4.6,6.1
					c-6.9-2.5-11.4-13.4-14-20.8c-3.2,1.9-2.3,4.1-4.6,6.1c-6.8-2.7-6.4-8.8-12.6-11.7c-0.9-3.9,1.1-7.6-1.5-11.7
					c-0.5-5.3,3.9-10.3,1.9-15.7c-3,2.6-1.9,4.4-2.5,7.5c-0.7,3.5-3,8.5-3.3,11.8c-0.4,4.3,1.4,7.8-1.1,9.8c-3.4,2.8-7.4-1.2-12-2.6
					c-14.4,8.1-24.6-9.9-31.2-23c2.8,8.7,9,17.6,10.2,26.1c-5.7-1.1-11.5-1.8-17.2-0.4c-2.4-2.9-1-5.5-4.8-8.5
					c-2.7,1.8,0.7,4.1,0.1,6c-8.3-5.8-5.3-14.1-14-20.8c0.5-0.7,0-1.4,0.4-2.1c1.3-1.8,2.6-0.5,3.8-1.9c-0.5-3.4,0-6.8,2.9-8.8
					c-1.7-4.6-2.5-9.1,1.1-13.2c-1.8-2.6-3.4,0.9-5.2-2.1c2.3-4.6-2.2-4.6-4-9.3c-1.1,0.1-2.3,1.1-3.4,0.6c-3.7-6-7.2-2.7-10.8-4.7
					c-1.9-4.1-1-7.8-5.7-10.3c-2.2,2.3,3.3,5.1,2.3,7.5c-5.5,2-11.1,4.9-16.6,6c0.7,3-0.7,6.4-4.6,7.8c0.3,5.1,0.2,10.7-1.5,14.5
					c1.3,2,2.6,0.9,3.9,2.4c0.4,2.3,0.8,4.6-0.8,6.8c6.5,2.4,11,7.6,16.5,11.6c1.3,0.2,2.5-2.1,3.8-1.9c1.4,1.3,2.9,2.2,4.3,2.9
					c1.6,0.7,1.7-2.4,2.6-1.5c5.2,7.1,15.4,16.2,16.2,24.8c-3.2,5.7-6.7,11-13.5,12.7c-1.3-0.3-2.6-3.4-4.8-5.1
					c-0.8-1.5,1.4-2.8-0.1-4.3c-9-6.8-17.8-9-26.7-5.5c-1.8,2.6-3.7,5.2-6.3,7.7c-2.1,6.1,0.8,12.7,0.3,18.9
					c2.6-0.7,5.6,3.1,6.1,5.6c7.3,2.9,14.7,5.6,21.9,2.1c6.5,6.9,0.6,12.9,2.4,19.5c-7.5,4.7-15,7.8-22.6,11.6
					c5.7,1.1,12.1-2.5,18.8-7.2c2.3,1.5,4.6,1.8,6.9,3.1c0.1,2.2,1.6,4.4-0.3,6.4c-1.5,1.5-3.1-0.2-4.7,0.9
					c5.6,4.9,14.2,13.1,5.9,19.8c1.8,3.3,3.4,0.1,5.2,2.1c1.2,7.1-9.9,19.4-16.4,20.7c0.5-5.7,5.9-10.1,0.2-15
					c-5.6-4.9-13.7,0.8-14.4,8.4c3,6.1,4.2,12.9,11.7,10.8c0.7,8.6-11.8,14.5-18.7,12.3c-2.2-1.5-4.3-3-6.5-1.8
					c0.2,0.5,0.1,0.9-0.4,1.3c0.7,2.5,4.5,5.2,6.5,7.8c-0.9,3.2-0.8,6.5-3.7,9.6c-2.6,0-7.5-2.8-8.6,0.2c3.3-0.8,8.7,3.6,9.5,7.6
					c-1.4,1.6-2.3,3.3-3.4,4.9c2,4.4,1.8,9.6,6.6,13c-0.2,2.4-3.6,4.6-2.9,7.1c2.3,2.9,4.6-0.8,6.9,2.2c-0.3,2.3-5.4,4.2-2.5,6.7
					c2.3,1.4,4.5-2.3,6.8-2.1c4.6,3,5.7,6.2,9.1,9.7c-0.1,1.1-1.2,2.2-0.8,3.4c1-0.4,0.5-3,2.1-2c1.8,2,0.2,3.7,3.1,5.8
					c1.8-1.7,2.2-3.8,4.7-4.4c8.8,8.4,17.5,1.9,26.2,2.4c6.3,4.8,6.8,11.4,10.5,14.5c-0.6-2.5-3.1-5.1-2.3-7.5
					c2-0.1,4.8,1.9,5.6-0.9c-2.6-3.1-5.2-2.4-7.8-3.2c-0.5-2.3-3.7-4.9-2.7-7.1c2.7-3.5,5.4-2.1,8.1-2.4c1.7-2.3,1.2-4.8,3.8-7
					c2-1.3,4,2.6,6,0.5c1.6-1.7-1.9-3.9-2.2-5.8c2.5-3.5,3.6-3,6.8-5.5c-2.1-3.9-3.6-7.7,0.7-11.1c-2.9-4.1-5-8.1-0.6-11.6
					c0.3-1.8-2-3.9-1.4-5.7c0.6,0.4,3.3-0.1,2.5-1.5c-3.5,1.4-6.7-5.7-7-8.3c-2-1.5-4,0.4-6-2.2c0.6-1,0.1-2,1.2-2.9
					c5,1.3,10.1,8.5,15.2,10.2c4.5-4.3,6.8-10.8,14-12.3c0.4,0.5,0.9,0.2,1.3,0.5c0,1.4,0.8,2.9,2.6,4.5c-1.5,9,5.1,16.2,6.8,25
					c2.1-7.6-10-19.9,2.2-28.2c-2.2-3.6-6.1,1.2-6.9-2.2c4.4-2.2,8.9,1.3,13.3,0.6c13.5,8.4,11,24.4,24.5,31.9
					c14.6-7.9-9.5-28.7-1.8-37.5c4.8-5.5,8,1.2,12.9,3.6c2.3-4.3-5.5-7.3-4.9-11.1c3.5-3.7,7.1,0.3,10.7,1.2
					c3.4-4.6,7.1-1.3,11.5-2.1c1.2-3.2-3.5-6.9-1.4-10c5.7-0.6,16.3-3.7,18.1,5.7c4.4,0.8,4.1,4.5,4.4,8.1c3.4-0.1,4.2,2.6,6.1,5.6
					c6.5-0.4,16.3,4.5,20.1-4.1c1.8-1.4,3.7,0.1,5.5-1.7C1777.7,282.7,1782.5,277.5,1778.7,271.6z M1613.1,289.6
					c1.7,1,4.2,4.2,1.8,6.2C1612.3,295,1611.7,291.4,1613.1,289.6z M1662.1,301c1.3,2.8-1.4,5.3-2,8
					C1658.5,306.3,1657.7,300.7,1662.1,301z M1582.2,261.1c-5.3-1.6-12.9-3.6-16.8-2.6C1571.1,259.6,1576.7,262,1582.2,261.1z
					 M1532.7,277.1c1.7,0.2,5.5,7.7,8.7,6.7C1538.8,280.9,1533.9,275.2,1532.7,277.1z"/>
			</g>
		</g>
	</g>
	<g>
		<g>
			<path class="st1" d="M1744.8,116c4.3-2.5-2.4-8.6-3.5-3.7C1743.4,114.2,1742.9,115.1,1744.8,116z M1718.9,136.8
				c1.3,2.4,3.1,4.5-0.3,5.6c2.7,1.9,3.5,5.5,4,8.5c3.9,2.7,5.2,5.2,6.6,8.7c4.5-2.3,9.2,0.6,13.7,1.9c1.3-2.7,3.5-3.8,6-2.1
				c4.7-3.3,3.2-8.2,8.9-10.1c-3.4-5.6-0.8-10.7-2.4-16.1c-1.3,0.5-2.6,0.7-3.9-0.7c-0.9-1.5,0.7-2.8-0.9-4.4
				c-2.6,1.2-5.4-0.7-6.9-4c-4.3,1.3-8.6,0.8-12.9-1c0.3,4.3-5.2,4.5-7.7,4.6C1721.2,131.2,1722.7,134,1718.9,136.8z M1805.2,203.9
				c2.9,5.4,9.2,6.6,13.3,3.2c-2.8-4.4-8.8-6.7-12.9-4.4C1805.8,203.1,1805.8,203.5,1805.2,203.9z M1827.9,261
				c1.6-1.4,2.2-0.9,3-2.8c-2.4-2.6-1.4-6-3.1-9.3c-1.7-3.1-5.7-5.3-5.3-9c-2.4,0.7-4.7-0.9-6.1-3.9c-4.1,2.7-8.3-2.3-12.4,2.1
				c-0.7-0.8-1.4-1.3-2.2-1.5c-1.6,0.9,0.4,2-1.2,2.9c-1.6,0.7-3.2-1.4-4.7,0.1c1.7,3.6-1.4,6.8-3.3,10.1c1.6,3.7-0.5,7.1,1.4,10.8
				c-4.8-2.5-9.5-3.9-14.1,0.2c4.9,14.3,20.9,0.4,28.5,13.3c6.4-2.1,15.1-0.6,17.9-9c1.6-0.4,3.2,1.4,4.7-0.1
				C1830.2,263.8,1827.3,262.3,1827.9,261z M1620.3,132.8c-1.9-3.2-3-6.2-4.8-9.4C1612.9,125.9,1618.1,131.3,1620.3,132.8z
				 M1753.6,343.9c-0.3,2.7,3.9,5.9,6.1,3.9C1760.9,344.7,1756,341.6,1753.6,343.9z M1532.8,252.4c-1.6-2.2-3.2-0.6-4.8-2.5
				c-1.4-2.8,1-5.4,2-8c-1.5-2.2-2.9-0.3-4.3-2.9c-0.7-1.9,0.1-3.7,0.3-5.6c-4.8-3.5-3.4-6.6-4.4-9.8c-1.4-0.2-2.8,0.9-4.3-0.3
				c-2.5-6-8.3-1.5-10.8-8.1c-6.3,3-12.8,1.5-18.1-4.8c-2.7,2.2,1,4.9-0.3,7.3c-2.9,4.3-6,2.8-8.9,4.9c-0.9,3.8-3.3,8.2-7.1,12.8
				c2.3,2.3,1,4.4,0.5,6.5c2.6,2.2,3.6,4.3,2.7,6.2c-1.8,2.7-3.7,1.7-5.5,3.4c3,1.3,6,1.7,9.1,4.6c0.5,3.3-0.2,6.6,4.9,10.2
				c1.6-1,3.1-0.9,4.7-0.1c0.8,1.9-1.4,3.6,0.5,5.6c2.3,0.7,4.1-5.3,7.2-2.5c1.9,1.9-0.7,3.4,1.8,5.3c2.4-1.3,3.2-2,4.7-4.4
				c4.6,1.4,1.4,5.7,4,6.7c1.8-1.7-0.6-3.8,1.2-5.5c4.6-0.3,6.9-7.8,11.9-6.8c2.9,1.2,6.9,9.9,11.7,10.8
				C1520.4,268.4,1521,254,1532.8,252.4z M1632.5,356.6c-0.9,5.2,4.7,6.9,8.8,12.7C1642.8,365.4,1636.5,359.6,1632.5,356.6z
				 M1527.7,279.1c2.5,3.8,5.3,7.6,8.3,11.4C1536.6,287.2,1530.9,281.2,1527.7,279.1z M1450.1,220.4c1.5-4.8-5-6.7-7.8-4.9
				c-3.4,2.3-0.8,6.7-3.3,9.2c3.9,7.8,10.3,0.9,15.4,1.2c0.4-0.8,0.4-1.7,0.8-2.5C1453.5,220.9,1451.8,220.9,1450.1,220.4z
				 M1594.4,386.4c-2.3,2.4,1.8,7.1,3.1,8.4C1598.7,392.1,1596.1,389.2,1594.4,386.4z M1566,383.4c2.8-4.4,4.6-8.8,4.9-13.4
				C1568.1,374.4,1566.6,378.8,1566,383.4z M1777.9,271.4l1.7-1.6c-1.7-3.3-1.6-2.6-5.2-3.8c-0.4-2.9-2.5-3.2-3.1-5.8
				c-2.6,0.9-5.1,0.9-7.8-3.2c-5,1.7-11.8-0.3-16.2,3.9c-2.4,2.2-2.2,7.1-5.9,7.3c0.2-14.6-24.7-25.4-31-37.1
				c4.4-1.9,8.8-2.7,13.2-4.6c2,1.3,5.8,1.7,6.4-1.7c-7.8-4.4-15.4,3.1-23.2-1.8c0.2-4.9-1.7-8.4-1.9-13.9
				c5.9-6.2,5.9-12.3,7.4-18.3c0.6-2.5,3.2-4.2,0.8-6.8c-0.9,0.3-1.7,0.2-2.6-0.2c-2.8,1.9-1.8,4.2-4.6,6.1
				c-6.9-2.5-11.4-13.4-14-20.8c-3.2,1.9-2.3,4.1-4.6,6.1c-6.8-2.7-6.4-8.8-12.6-11.7c-0.9-3.9,1.1-7.6-1.5-11.7
				c-0.5-5.3,3.9-10.3,1.9-15.7c-3,2.6-1.9,4.4-2.5,7.5c-0.7,3.5-3,8.5-3.3,11.8c-0.4,4.3,1.4,7.8-1.1,9.8c-3.4,2.8-7.4-1.2-12-2.6
				c-14.4,8.1-24.6-9.9-31.2-23c2.8,8.7,9,17.6,10.2,26.1c-5.7-1.1-11.5-1.8-17.2-0.4c-2.4-2.9-1-5.5-4.8-8.5
				c-2.7,1.8,0.7,4.1,0.1,6c-8.3-5.8-5.3-14.1-14-20.8c0.5-0.7,0-1.4,0.4-2.1c1.3-1.8,2.6-0.5,3.8-1.9c-0.5-3.4,0-6.8,2.9-8.8
				c-1.7-4.6-2.5-9.1,1.1-13.2c-1.8-2.6-3.4,0.9-5.2-2.1c2.3-4.6-2.2-4.6-4-9.3c-1.1,0.1-2.3,1.1-3.4,0.6c-3.7-6-7.2-2.7-10.8-4.7
				c-1.9-4.1-1-7.8-5.7-10.3c-2.2,2.3,3.3,5.1,2.3,7.5c-5.5,2-11.1,4.9-16.6,6c0.7,3-0.7,6.4-4.6,7.8c0.3,5.1,0.2,10.7-1.5,14.5
				c1.3,2,2.6,0.9,3.9,2.4c0.4,2.3,0.8,4.6-0.8,6.8c6.5,2.4,11,7.6,16.5,11.6c1.3,0.2,2.5-2.1,3.8-1.9c1.4,1.3,2.9,2.2,4.3,2.9
				c1.6,0.7,1.7-2.4,2.6-1.5c5.2,7.1,15.4,16.2,16.2,24.8c-3.2,5.7-6.7,11-13.5,12.7c-1.3-0.3-2.6-3.4-4.8-5.1
				c-0.8-1.5,1.4-2.8-0.1-4.3c-9-6.8-17.8-9-26.7-5.5c-1.8,2.6-3.7,5.2-6.3,7.7c-2.1,6.1,0.8,12.7,0.3,18.9c2.6-0.7,5.6,3.1,6.1,5.6
				c7.3,2.9,14.7,5.6,21.9,2.1c6.5,6.9,0.6,12.9,2.4,19.5c-7.5,4.7-15,7.8-22.6,11.6c5.7,1.1,12.1-2.5,18.8-7.2
				c2.3,1.5,4.6,1.8,6.9,3.1c0.1,2.2,1.6,4.4-0.3,6.4c-1.5,1.5-3.1-0.2-4.7,0.9c5.6,4.9,14.2,13.1,5.9,19.8c1.8,3.3,3.4,0.1,5.2,2.1
				c1.2,7.1-9.9,19.4-16.4,20.7c0.5-5.7,5.9-10.1,0.2-15c-5.6-4.9-13.7,0.8-14.4,8.4c3,6.1,4.2,12.9,11.7,10.8
				c0.7,8.6-11.8,14.5-18.7,12.3c-2.2-1.5-4.3-3-6.5-1.8c0.2,0.5,0.1,0.9-0.4,1.3c0.7,2.5,4.5,5.2,6.5,7.8c-0.9,3.2-0.8,6.5-3.7,9.6
				c-2.6,0-7.5-2.8-8.6,0.2c3.3-0.8,8.7,3.6,9.5,7.6c-1.4,1.6-2.3,3.3-3.4,4.9c2,4.4,1.8,9.6,6.6,13c-0.2,2.4-3.6,4.6-2.9,7.1
				c2.3,2.9,4.6-0.8,6.9,2.2c-0.3,2.3-5.4,4.2-2.5,6.7c2.3,1.4,4.5-2.3,6.8-2.1c4.6,3,5.7,6.2,9.1,9.7c-0.1,1.1-1.2,2.2-0.8,3.4
				c1-0.4,0.5-3,2.1-2c1.8,2,0.2,3.7,3.1,5.8c1.8-1.7,2.2-3.8,4.7-4.4c8.8,8.4,17.5,1.9,26.2,2.4c6.3,4.8,6.8,11.4,10.5,14.5
				c-0.6-2.5-3.1-5.1-2.3-7.5c2-0.1,4.8,1.9,5.6-0.9c-2.6-3.1-5.2-2.4-7.8-3.2c-0.5-2.3-3.7-4.9-2.7-7.1c2.7-3.5,5.4-2.1,8.1-2.4
				c1.7-2.3,1.2-4.8,3.8-7c2-1.3,4,2.6,6,0.5c1.6-1.7-1.9-3.9-2.2-5.8c2.5-3.5,3.6-3,6.8-5.5c-2.1-3.9-3.6-7.7,0.7-11.1
				c-2.9-4.1-5-8.1-0.6-11.6c0.3-1.8-2-3.9-1.4-5.7c0.6,0.4,3.3-0.1,2.5-1.5c-3.5,1.4-6.7-5.7-7-8.3c-2-1.5-4,0.4-6-2.2
				c0.6-1,0.1-2,1.2-2.9c5,1.3,10.1,8.5,15.2,10.2c4.5-4.3,6.8-10.8,14-12.3c0.4,0.5,0.9,0.2,1.3,0.5c0,1.4,0.8,2.9,2.6,4.5
				c-1.5,9,5.1,16.2,6.8,25c2.1-7.6-10-19.9,2.2-28.2c-2.2-3.6-6.1,1.2-6.9-2.2c4.4-2.2,8.9,1.3,13.3,0.6
				c13.5,8.4,11,24.4,24.5,31.9c14.6-7.9-9.5-28.7-1.8-37.5c4.8-5.5,8,1.2,12.9,3.6c2.3-4.3-5.5-7.3-4.9-11.1
				c3.5-3.7,7.1,0.3,10.7,1.2c3.4-4.6,7.1-1.3,11.5-2.1c1.2-3.2-3.5-6.9-1.4-10c5.7-0.6,16.3-3.7,18.1,5.7c4.4,0.8,4.1,4.5,4.4,8.1
				c3.4-0.1,4.2,2.6,6.1,5.6c6.5-0.4,16.3,4.5,20.1-4.1c1.8-1.4,3.7,0.1,5.5-1.7C1776.9,282.5,1781.7,277.3,1777.9,271.4z
				 M1612.3,289.4c1.7,1,4.2,4.2,1.8,6.2C1611.4,294.8,1610.9,291.2,1612.3,289.4z M1661.3,300.8c1.3,2.8-1.4,5.3-2,8
				C1657.6,306.1,1656.8,300.5,1661.3,300.8z M1581.4,260.8c-5.3-1.6-12.9-3.6-16.8-2.6C1570.2,259.4,1575.8,261.7,1581.4,260.8z
				 M1531.9,276.9c1.7,0.2,5.5,7.7,8.7,6.7C1538,280.7,1533,275,1531.9,276.9z"/>
		</g>
		<g>
			<path class="st1" d="M1745.6,116.2c4.3-2.5-2.4-8.6-3.5-3.7C1744.2,114.4,1743.7,115.4,1745.6,116.2z M1719.7,137
				c1.3,2.4,3.1,4.5-0.3,5.6c2.7,1.9,3.5,5.5,4,8.5c3.9,2.7,5.2,5.2,6.6,8.7c4.5-2.3,9.2,0.6,13.7,1.9c1.3-2.7,3.5-3.8,6-2.1
				c4.7-3.3,3.2-8.2,8.9-10.1c-3.4-5.6-0.8-10.7-2.4-16.1c-1.3,0.5-2.6,0.7-3.9-0.7c-0.9-1.5,0.7-2.8-0.9-4.4
				c-2.6,1.2-5.4-0.7-6.9-4c-4.3,1.3-8.6,0.8-12.9-1c0.3,4.3-5.2,4.5-7.7,4.6C1722,131.4,1723.5,134.2,1719.7,137z M1806,204.1
				c2.9,5.4,9.2,6.6,13.3,3.2c-2.8-4.4-8.8-6.7-12.9-4.4C1806.7,203.3,1806.6,203.7,1806,204.1z M1828.7,261.2
				c1.6-1.4,2.2-0.9,3-2.8c-2.4-2.6-1.4-6-3.1-9.3c-1.7-3.1-5.7-5.3-5.3-9c-2.4,0.7-4.7-0.9-6.1-3.9c-4.1,2.7-8.3-2.3-12.4,2.1
				c-0.7-0.8-1.4-1.3-2.2-1.5c-1.6,0.9,0.4,2-1.2,2.9c-1.6,0.7-3.2-1.4-4.7,0.1c1.7,3.6-1.4,6.8-3.3,10.1c1.6,3.7-0.5,7.1,1.4,10.8
				c-4.8-2.5-9.5-3.9-14.1,0.2c4.9,14.3,20.9,0.4,28.5,13.3c6.4-2.1,15.1-0.6,17.9-9c1.6-0.4,3.2,1.4,4.7-0.1
				C1831,264,1828.1,262.5,1828.7,261.2z M1621.1,133c-1.9-3.2-3-6.2-4.8-9.4C1613.8,126.2,1619,131.5,1621.1,133z M1754.5,344.1
				c-0.3,2.7,3.9,5.9,6.1,3.9C1761.7,344.9,1756.8,341.8,1754.5,344.1z M1533.7,252.7c-1.6-2.2-3.2-0.6-4.8-2.5c-1.4-2.8,1-5.4,2-8
				c-1.5-2.2-2.9-0.3-4.3-2.9c-0.7-1.9,0.1-3.7,0.3-5.6c-4.8-3.5-3.4-6.6-4.4-9.8c-1.4-0.2-2.8,0.9-4.3-0.3c-2.5-6-8.3-1.5-10.8-8.1
				c-6.3,3-12.8,1.5-18.1-4.8c-2.7,2.2,1,4.9-0.3,7.3c-2.9,4.3-6,2.8-8.9,4.9c-0.9,3.8-3.3,8.2-7.1,12.8c2.3,2.3,1,4.4,0.5,6.5
				c2.6,2.2,3.6,4.3,2.7,6.2c-1.8,2.7-3.7,1.7-5.5,3.4c3,1.3,6,1.7,9.1,4.6c0.5,3.3-0.2,6.6,4.9,10.2c1.6-1,3.1-0.9,4.7-0.1
				c0.8,1.9-1.4,3.6,0.5,5.6c2.3,0.7,4.1-5.3,7.2-2.5c1.9,1.9-0.7,3.4,1.8,5.3c2.4-1.3,3.2-2,4.7-4.4c4.6,1.4,1.4,5.7,4,6.7
				c1.8-1.7-0.6-3.8,1.2-5.5c4.6-0.3,6.9-7.8,11.9-6.8c2.9,1.2,6.9,9.9,11.7,10.8C1521.2,268.7,1521.8,254.2,1533.7,252.7z
				 M1633.3,356.8c-0.9,5.2,4.7,6.9,8.8,12.7C1643.6,365.7,1637.4,359.8,1633.3,356.8z M1528.5,279.3c2.5,3.8,5.3,7.6,8.3,11.4
				C1537.5,287.4,1531.7,281.4,1528.5,279.3z M1450.9,220.6c1.5-4.8-5-6.7-7.8-4.9c-3.4,2.3-0.8,6.7-3.3,9.2
				c3.9,7.8,10.3,0.9,15.4,1.2c0.4-0.8,0.4-1.7,0.8-2.5C1454.3,221.1,1452.6,221.1,1450.9,220.6z M1595.2,386.6
				c-2.3,2.4,1.8,7.1,3.1,8.4C1599.5,392.4,1597,389.5,1595.2,386.6z M1566.9,383.6c2.8-4.4,4.6-8.8,4.9-13.4
				C1569,374.6,1567.4,379.1,1566.9,383.6z M1778.7,271.6l1.7-1.6c-1.7-3.3-1.6-2.6-5.2-3.8c-0.4-2.9-2.5-3.2-3.1-5.8
				c-2.6,0.9-5.1,0.9-7.8-3.2c-5,1.7-11.8-0.3-16.2,3.9c-2.4,2.2-2.2,7.1-5.9,7.3c0.2-14.6-24.7-25.4-31-37.1
				c4.4-1.9,8.8-2.7,13.2-4.6c2,1.3,5.8,1.7,6.4-1.7c-7.8-4.4-15.4,3.1-23.2-1.8c0.2-4.9-1.7-8.4-1.9-13.9
				c5.9-6.2,5.9-12.3,7.4-18.3c0.6-2.5,3.2-4.2,0.8-6.8c-0.9,0.3-1.7,0.2-2.6-0.2c-2.8,1.9-1.8,4.2-4.6,6.1
				c-6.9-2.5-11.4-13.4-14-20.8c-3.2,1.9-2.3,4.1-4.6,6.1c-6.8-2.7-6.4-8.8-12.6-11.7c-0.9-3.9,1.1-7.6-1.5-11.7
				c-0.5-5.3,3.9-10.3,1.9-15.7c-3,2.6-1.9,4.4-2.5,7.5c-0.7,3.5-3,8.5-3.3,11.8c-0.4,4.3,1.4,7.8-1.1,9.8c-3.4,2.8-7.4-1.2-12-2.6
				c-14.4,8.1-24.6-9.9-31.2-23c2.8,8.7,9,17.6,10.2,26.1c-5.7-1.1-11.5-1.8-17.2-0.4c-2.4-2.9-1-5.5-4.8-8.5
				c-2.7,1.8,0.7,4.1,0.1,6c-8.3-5.8-5.3-14.1-14-20.8c0.5-0.7,0-1.4,0.4-2.1c1.3-1.8,2.6-0.5,3.8-1.9c-0.5-3.4,0-6.8,2.9-8.8
				c-1.7-4.6-2.5-9.1,1.1-13.2c-1.8-2.6-3.4,0.9-5.2-2.1c2.3-4.6-2.2-4.6-4-9.3c-1.1,0.1-2.3,1.1-3.4,0.6c-3.7-6-7.2-2.7-10.8-4.7
				c-1.9-4.1-1-7.8-5.7-10.3c-2.2,2.3,3.3,5.1,2.3,7.5c-5.5,2-11.1,4.9-16.6,6c0.7,3-0.7,6.4-4.6,7.8c0.3,5.1,0.2,10.7-1.5,14.5
				c1.3,2,2.6,0.9,3.9,2.4c0.4,2.3,0.8,4.6-0.8,6.8c6.5,2.4,11,7.6,16.5,11.6c1.3,0.2,2.5-2.1,3.8-1.9c1.4,1.3,2.9,2.2,4.3,2.9
				c1.6,0.7,1.7-2.4,2.6-1.5c5.2,7.1,15.4,16.2,16.2,24.8c-3.2,5.7-6.7,11-13.5,12.7c-1.3-0.3-2.6-3.4-4.8-5.1
				c-0.8-1.5,1.4-2.8-0.1-4.3c-9-6.8-17.8-9-26.7-5.5c-1.8,2.6-3.7,5.2-6.3,7.7c-2.1,6.1,0.8,12.7,0.3,18.9c2.6-0.7,5.6,3.1,6.1,5.6
				c7.3,2.9,14.7,5.6,21.9,2.1c6.5,6.9,0.6,12.9,2.4,19.5c-7.5,4.7-15,7.8-22.6,11.6c5.7,1.1,12.1-2.5,18.8-7.2
				c2.3,1.5,4.6,1.8,6.9,3.1c0.1,2.2,1.6,4.4-0.3,6.4c-1.5,1.5-3.1-0.2-4.7,0.9c5.6,4.9,14.2,13.1,5.9,19.8c1.8,3.3,3.4,0.1,5.2,2.1
				c1.2,7.1-9.9,19.4-16.4,20.7c0.5-5.7,5.9-10.1,0.2-15c-5.6-4.9-13.7,0.8-14.4,8.4c3,6.1,4.2,12.9,11.7,10.8
				c0.7,8.6-11.8,14.5-18.7,12.3c-2.2-1.5-4.3-3-6.5-1.8c0.2,0.5,0.1,0.9-0.4,1.3c0.7,2.5,4.5,5.2,6.5,7.8c-0.9,3.2-0.8,6.5-3.7,9.6
				c-2.6,0-7.5-2.8-8.6,0.2c3.3-0.8,8.7,3.6,9.5,7.6c-1.4,1.6-2.3,3.3-3.4,4.9c2,4.4,1.8,9.6,6.6,13c-0.2,2.4-3.6,4.6-2.9,7.1
				c2.3,2.9,4.6-0.8,6.9,2.2c-0.3,2.3-5.4,4.2-2.5,6.7c2.3,1.4,4.5-2.3,6.8-2.1c4.6,3,5.7,6.2,9.1,9.7c-0.1,1.1-1.2,2.2-0.8,3.4
				c1-0.4,0.5-3,2.1-2c1.8,2,0.2,3.7,3.1,5.8c1.8-1.7,2.2-3.8,4.7-4.4c8.8,8.4,17.5,1.9,26.2,2.4c6.3,4.8,6.8,11.4,10.5,14.5
				c-0.6-2.5-3.1-5.1-2.3-7.5c2-0.1,4.8,1.9,5.6-0.9c-2.6-3.1-5.2-2.4-7.8-3.2c-0.5-2.3-3.7-4.9-2.7-7.1c2.7-3.5,5.4-2.1,8.1-2.4
				c1.7-2.3,1.2-4.8,3.8-7c2-1.3,4,2.6,6,0.5c1.6-1.7-1.9-3.9-2.2-5.8c2.5-3.5,3.6-3,6.8-5.5c-2.1-3.9-3.6-7.7,0.7-11.1
				c-2.9-4.1-5-8.1-0.6-11.6c0.3-1.8-2-3.9-1.4-5.7c0.6,0.4,3.3-0.1,2.5-1.5c-3.5,1.4-6.7-5.7-7-8.3c-2-1.5-4,0.4-6-2.2
				c0.6-1,0.1-2,1.2-2.9c5,1.3,10.1,8.5,15.2,10.2c4.5-4.3,6.8-10.8,14-12.3c0.4,0.5,0.9,0.2,1.3,0.5c0,1.4,0.8,2.9,2.6,4.5
				c-1.5,9,5.1,16.2,6.8,25c2.1-7.6-10-19.9,2.2-28.2c-2.2-3.6-6.1,1.2-6.9-2.2c4.4-2.2,8.9,1.3,13.3,0.6
				c13.5,8.4,11,24.4,24.5,31.9c14.6-7.9-9.5-28.7-1.8-37.5c4.8-5.5,8,1.2,12.9,3.6c2.3-4.3-5.5-7.3-4.9-11.1
				c3.5-3.7,7.1,0.3,10.7,1.2c3.4-4.6,7.1-1.3,11.5-2.1c1.2-3.2-3.5-6.9-1.4-10c5.7-0.6,16.3-3.7,18.1,5.7c4.4,0.8,4.1,4.5,4.4,8.1
				c3.4-0.1,4.2,2.6,6.1,5.6c6.5-0.4,16.3,4.5,20.1-4.1c1.8-1.4,3.7,0.1,5.5-1.7C1777.7,282.7,1782.5,277.5,1778.7,271.6z
				 M1613.1,289.6c1.7,1,4.2,4.2,1.8,6.2C1612.3,295,1611.7,291.4,1613.1,289.6z M1662.1,301c1.3,2.8-1.4,5.3-2,8
				C1658.5,306.3,1657.7,300.7,1662.1,301z M1582.2,261.1c-5.3-1.6-12.9-3.6-16.8-2.6C1571.1,259.6,1576.7,262,1582.2,261.1z
				 M1532.7,277.1c1.7,0.2,5.5,7.7,8.7,6.7C1538.8,280.9,1533.9,275.2,1532.7,277.1z"/>
		</g>
	</g>
</g>
<g id="Saleté_groupe_vectoriel_xA0_09_2">
	<path class="st2" d="M461.2,333c2.3,5.9,11.7,0.4,12.1-2.9c0.4-2.9-0.9-5.5-3.4-6.1C464.3,322.7,461.7,327.8,461.2,333z
		 M470.6,390.7c0.8-3-0.9-5.3-2.9-5.3C463.2,385.4,465.8,394.3,470.6,390.7z M461.8,324.5c-2.1,1.5-5.2,1.9-6.1,4.5
		C458.3,328,460.6,326.8,461.8,324.5z M433.1,254.3c6.5,5.2,5.1-8.2-0.3-2.8L433.1,254.3z M449.6,397.7c0.5-1.5,0.1-3.9-1.3-4.5
		C443.6,392.5,445.8,400.2,449.6,397.7z M434.1,323c-2.9-1.5-6.6-1.9-10-2.8c2.4,2.4,6.7,2.5,9.8,4
		C433.8,323.7,434.2,323.6,434.1,323z M399.3,275.1c0.5-0.5,1.2-2.2-0.3-2.4C399.2,273.4,398.2,274.7,399.3,275.1z M406.7,391.7
		c0-2.2-1-3.4-3.1-3.2C404,390.4,404.8,391.7,406.7,391.7z M389.7,251.1c-2.2,0.9-3,3-3.3,5.7C388.2,255.6,389.1,253.5,389.7,251.1z
		 M385.4,364.2c0.1-3-1.3-7.8-3.1-10.2C383.7,357.4,384,362,385.4,364.2z M346.7,362.3c-1.4,1.5-2.1,3.6-2,6.5
		C346.7,367.8,345.9,364.3,346.7,362.3z M332.3,244.8c-1.1-0.8-2.5,0.3-3,1.2C330.7,246,332.5,246.3,332.3,244.8z M335,379
		c-0.1-3.6-2.4-5.5-4.8-4.9C325.1,375.5,331.5,385.2,335,379z M321.2,257c-1.2,0.2-1-1.2-2.4-0.8C318.5,257.5,321.8,258.3,321.2,257
		z M331.9,357.4l-1.2,0c0,0.9,0.3,1.5,1,1.6C331.7,358.5,332.1,358.3,331.9,357.4z M318.4,277.8c0.4-0.1,1.1,0.1,1.1-0.4
		c-4-1.8-5.9-6.2-10.9-6.9C311.3,273.7,315.3,275.3,318.4,277.8z M322.6,361.9c-0.5,1.3,0,2.7,0.8,3.7l1.9,0
		C326.4,363.9,325.7,361.2,322.6,361.9z M320.3,390.4c-0.8,0.6-1.7,1.1-1.2,2.8c0.7,0.9,1.6,1.5,3.2,1.2
		C323.4,392.8,322.6,390.5,320.3,390.4z M313.4,345.3c-1.2-0.2-1.7,0.4-1.4,1.6c0.5,0.3,1.1,0.5,2,0.4
		C314.2,346.2,313.4,346.3,313.4,345.3z M295.1,295.3c-1.2-0.4-2.2-1.6-3.3-2c-2.3-0.8-4.5-0.6-6.3-1.2c5.4,4.3,13.9,4.9,21.3,6.8
		c-0.2-0.8,0.3-0.9,0.2-1.6C304.5,294.8,299,296.6,295.1,295.3z M291,271.8c-1.1,1.7-2.5,3-3.8,4.5c-0.1,4.1-0.2,6.4,1.5,9.8
		c3.3,0.7,4.5,3.8,6.8,5.7c2.1-2.4,5.4-3.7,7.9-5.7C305.8,277.8,299.9,269.3,291,271.8z M298.6,323c0.2,1.2-0.7,1.3-0.5,2.4
		c0.8,1.1,1.6,2,3.7,1.6C303.7,325.1,301,321.1,298.6,323z M295.3,293.3c0.9-0.3,2.9,1.9,2.7,0C296.9,293.8,295.7,292.1,295.3,293.3
		z M383.7,263.8c1-2,2.1-3.8,2.8-6.1C384.9,258.7,383.5,263.5,383.7,263.8z M347.6,246.4c1.2,0,1.4-0.9,2.2-1.2
		c0-1.5-0.6-2.4-1.8-2.4c-1.1,0.1-0.3,1.9-1.8,1.6C347.1,245.4,347.2,244,347.6,246.4z M351.4,348c0.2,0.5-1,1.4-1.1,0.4
		c0.4-1.5,0.6-6.4,3.1-3.7c0.4,1.5-2.4,1.9-0.8,3.3c0.2-1,0.8-1.7,1.7-2c1.1,1,1.3,3.1,1.7,4.9c6.4-0.3,3.7,10.9,8.3,11.8
		c5.6,1.1,2.9-12.4,12-7.8c0.2-0.6,0.5-1,1-1.2c0.1-3.1-1.5-4.1-1.5-6.9c1.2-0.2,1.3,0.8,1.9,0c-0.8-1.6-1.3-2.3,0.5-2.8
		c1.5,0.6,0.9,3.8,2.8,4.1c-1.5-4.9-2.6-10.4,3.6-9.8c3.7,6.1,9.9,9.2,13.6,14.6c1.8,2.7,3.8,5.6,7.2,5.7c4.7-4.1-3.3-7.5-3.4-13
		c-2.5-4.8-7.4-6.8-9.8-11.8c0.8,0.7,2.9,0.6,2.6-0.8c-0.5-2-3.1,0.2-3.1-0.4c0-2.4,2.7-1,4.1-1.6c2-0.9,2.9-3.1,6.4-1.6
		c0.6,0.9,0.9,2.3,1.5,3.2c2.2-0.5,6.1,2.3,6.1-1.2c-0.7-1-2.6-0.6-2.9-2c5.3-2.5,10.3-0.5,16.1-1.7c3.8-5.7-5.2-5.3-7.1-8.5
		c2,0,1.8,0.5,4,0.8c-1-2.6-6.4-0.1-7-3.2c2.4-1.1,5.8-1.4,5.7-4.9c-3.3-1.2-5,2.4-7.5,2.1c2.3,4.4-4.5-0.7-3.9-4.1
		c0.2-1.1,2-0.8,1.2-2.9c-3-0.3-8.2,1.3-7.4-3.6c7.4-8.7,16.2-15.9,29.8-18.8c2.2-4,17.6-2.7,17.6-9c0-5.1-4.4-4.1-6.6-3.2
		c-5.1,2-13.7,4.7-17.5,6.6c-9.9,4.7-17.7,11.1-28.9,8.6c-6-2.8-2.9-10-1.2-14.2c1.5-3.5,2.3-4.7,5.7-4.9c0.8-6.9,7.7-10,7-17.1
		c-9.7,4.4-11.6,16.1-18.4,23.2c-2.5,0-5.8,1.1-8.2,0c1.2-3,1.8-6.6,3.2-9.4c-2.9,2.1-2.6,7.3-5.1,9.8c-6.4-8.3-4.7-22.4-1.8-30.1
		c1-0.3-0.1,1.9,1,1.6c0.6-2.6-1.8-2.9-2.6-5.7c-0.5-0.1-1.1,0.1-1.2-0.4c-6.4,2.2-1.8,14.8-5.2,19.9c-0.1-1-0.2-2-0.7-2.4
		c-2.7,0.1-3.2,0.1-4.9,1.2c-2.9-4.9-8-7-11-11.8c-0.7,0.9,1.2,3.4-0.3,4.1c-3.2-1.7-6-5.9-8.5-6.9c-1.9-3.4-3.1-7.6-5.8-10.1
		c1.9,6.1,6.3,15.4,10.3,19.1c-0.3,2.3,1,4.8-1.3,5.7c0.2-0.8,0.5-1.5,0.5-2.4c-1-0.5-1.8,0.9-1.9,0c-0.3-2.6-2-1.5-0.7-2.8
		c-2.5-0.9-2.3,3.6-3.3,5.3c-0.8-1.2-0.8-3.3-2.3-3.7c0.8,3.6,3.7,10,6,15.4c1.3,3.1,3.6,8.3-0.6,8.9c-3.1,0.5-3.4-3.3-6.3-4.5
		c-1,1.5,2.6,2.6,1.6,4.1c-4.9-0.6-8.9-4.7-12.2-8.5c-4.8-5.5-9.8-12.6-17.1-10.9c-0.5,2-0.5,4.1,0.3,6.5c3.9,2.5,7.4,6.9,11.6,10.1
		c3.3,2.5,7.9,3.7,8.2,7.7c-1.5-0.9-2.6-2.2-4.5-2.4c0.9,3.7,8,4,9.8,8.1c-3.3,1.1-4.8-3.8-8.6-3.6c1.7,4,7.1,3.5,9,7.3
		c-2.5,1.9-4.2,4.6-7.1,6.1c-5-0.6-10.1-0.8-15.3-1.2c2.8,2.8,10.1,0.2,12.4,3.6c-3.4-0.2-6.8-0.3-6.2,3.3c0.9,2.4,4.4,1.8,6.9,2.4
		c1.5,2,1.8,3.7,2.2,6.1c2.2,1,5.6,1.6,5.5,4c2.5,0.2,3.2-0.4,4.4,1.2c0.1,3.7-2.6,4.9-4.7,6.5c-1.8,5.6-6.3,8.6-9.9,12.6
		c-3.3,1.1-6.2,2.4-7.1,5.7c6.1-0.9,9-5,15.1-4.1c0.8-0.8,0.5-2.7,1.2-3.7c5.5-0.6,14.8-8.8,17.3-1.3c1.6,4.6-1.5,4.6-1.8,8.1
		c0.4,0.7,1,1.3,1.7,1.6c-0.3,2.7-1.8,4.4-1.5,7.7C350.1,351.6,352.3,349.7,351.4,348z M341.4,260.2c1.1-0.8,3.1-0.8,4.7,0.8
		c-1.8,2.5,1.5,5.8,0.9,8.1C343.6,267.9,343.4,263.1,341.4,260.2z M350.2,263.1c0.9,0.4,1.4,1.4,1.5,2.8
		C351,265.2,350.2,264.7,350.2,263.1z M355.1,268.3c-0.9,0.1,0,1.7-0.1,2.4c-1.9-1.4-2.2-4.8-3.1-7.3c0.7-0.5,1.8-0.5,2.6-0.8
		c1.6,1.9,5.6,6.7,3,9.3C356.2,271.3,355.4,270.1,355.1,268.3z M360.2,268.7c1.5-1.4,3.2-2.6,3.3-5.3c6.5-0.4,6,7.9,0.5,7.7
		c-0.8,0.7-0.9,2.1-1.6,2.9C360.5,273.5,361.7,269.5,360.2,268.7z M328.2,263.9c-1.2-2.4-2.6-4.6-4.6-6.1
		C323.1,260,328.2,263.9,328.2,263.9z M320.1,278.6c0.6,1.4,2.3,1.6,3.4,2.4C322.9,279.6,321.2,279.4,320.1,278.6z"/>
	<path class="st2" d="M1623.3,872.7c-2.8-7.6-16.7,1.2-17.7,5.8c-0.9,4,0.8,7.2,4.2,7.7C1617.7,887.2,1622,879.9,1623.3,872.7z
		 M1615.7,796.3c-1.4,4.2,0.7,7,3.6,6.7C1625.9,802.2,1623,790.7,1615.7,796.3z M1621.5,884.3c3.1-2.3,7.7-3.4,9.2-7
		C1626.9,879,1623.5,881.1,1621.5,884.3z M1655.5,974.7c-8.8-6-8.2,11.8,0.2,3.8L1655.5,974.7z M1646.5,783.6
		c-0.9,2.1-0.5,5.3,1.4,5.8C1654.7,789.7,1652.3,779.6,1646.5,783.6z M1661.2,882c4,1.6,9.3,1.5,14.1,2.2c-3.2-2.8-9.3-2.3-13.6-3.9
		C1661.7,881,1661,881.2,1661.2,882z M1706.2,941.2c-0.8,0.8-1.9,3.1,0.1,3.2C1706.2,943.5,1707.8,941.6,1706.2,941.2z
		 M1707.6,784.9c-0.2,3,1.1,4.4,4.1,3.9C1711.4,786.3,1710.3,784.7,1707.6,784.9z M1717.6,972c3.2-1.5,4.6-4.6,5.3-8.2
		C1720.1,965.8,1718.7,968.8,1717.6,972z M1735.4,818.8c-0.5,4.1,1.1,10.4,3.3,13.2C1737.1,827.6,1737.1,821.4,1735.4,818.8z
		 M1790.7,815.3c2.2-2.2,3.4-5.2,3.5-9.1C1791.4,807.8,1792.1,812.4,1790.7,815.3z M1799.3,971.6c1.4,0.9,3.6-0.9,4.4-2.1
		C1801.7,969.7,1799.2,969.5,1799.3,971.6z M1809.3,790.9c-0.2,4.9,2.8,7.1,6.4,5.8C1823.1,794,1814.9,781.9,1809.3,790.9z
		 M1816.5,953.3c1.7-0.5,1.3,1.5,3.4,0.7C1820.4,952.2,1815.8,951.7,1816.5,953.3z M1811.6,819.4l1.7-0.2c0.1-1.3-0.2-2-1.2-2
		C1811.9,818,1811.3,818.3,1811.6,819.4z M1822.6,924.9c-0.7,0.2-1.6,0.1-1.6,0.7c5.6,1.8,7.8,7.4,14.9,7.6
		C1832.5,929.2,1826.9,927.8,1822.6,924.9z M1825.3,811.9c0.8-1.8,0.3-3.6-0.8-4.8l-2.8,0.3C1820.1,809.9,1820.8,813.4,1825.3,811.9
		z M1831.5,773.1c1.2-0.9,2.6-1.7,2.1-4c-0.9-1-2.1-1.7-4.5-1.1C1827.4,770.3,1828.2,773.3,1831.5,773.1z M1836.8,832.9
		c1.8,0.1,2.5-0.7,2.1-2.4c-0.7-0.4-1.5-0.5-2.8-0.2C1835.7,831.9,1836.9,831.6,1836.8,832.9z M1857.9,897.5c1.7,0.3,3,1.9,4.6,2.2
		c3.3,0.7,6.4,0.2,9,0.6c-7.4-4.9-19.5-4.5-29.9-5.9c0.2,1-0.6,1.3-0.5,2.2C1844.4,899.7,1852.5,896.4,1857.9,897.5z M1861.4,928.7
		c1.7-2.4,3.9-4.5,5.9-6.6c0.5-5.5,0.9-8.7-1.1-12.9c-4.6-0.4-6.1-4.4-9.2-6.6c-3.3,3.6-8.2,5.8-12,9
		C1840.8,922.9,1848.4,933.4,1861.4,928.7z M1855.8,860.7c-0.2-1.6,1.2-1.8,1-3.4c-1-1.3-2.1-2.5-5.1-1.6
		C1848.7,858.7,1852.2,863.6,1855.8,860.7z M1857.4,900.3c-1.4,0.5-3.9-2.1-3.9,0.4C1855.2,899.8,1856.7,902,1857.4,900.3z
		 M1727.5,954.1c-1.6,2.9-3.5,5.5-4.7,8.7C1725.2,961.1,1727.7,954.4,1727.5,954.1z M1777.5,971.8c-1.7,0.2-2.1,1.4-3.3,2
		c-0.1,2,0.6,3.1,2.4,3c1.6-0.3,0.6-2.7,2.7-2.5C1778,973.1,1777.8,975,1777.5,971.8z M1782.5,835.2c-0.2-0.6,1.5-2,1.7-0.7
		c-0.7,2.2-1.5,8.8-4.8,5.4c-0.4-1.9,3.6-2.9,1.5-4.5c-0.4,1.4-1.3,2.4-2.7,3c-1.4-1.2-1.5-4-1.9-6.3c-9.2,1.3-4.2-14.1-10.7-14.6
		c-7.9-0.5-5.5,17.3-18,12.4c-0.3,0.8-0.8,1.4-1.6,1.8c-0.5,4.1,1.7,5.2,1.5,9.1c-1.8,0.5-1.8-0.8-2.8,0.3c0.9,2.1,1.6,3-1,3.9
		c-2.1-0.6-1-5-3.6-5c1.7,6.4,2.7,13.7-6.2,13.8c-4.7-7.7-13.3-10.9-18.1-17.6c-2.4-3.3-4.9-6.9-9.8-6.5c-7.1,6.3,4,9.6,3.5,17
		c3.2,6.1,10,8,12.9,14.3c-1-0.8-4.1-0.3-3.9,1.5c0.5,2.6,4.4-0.8,4.5,0c-0.2,3.2-4,1.8-6,2.9c-2.9,1.5-4.5,4.7-9.4,3.2
		c-0.8-1.2-1-3-1.8-4.1c-3.2,1.1-8.5-2.2-8.9,2.6c0.8,1.3,3.7,0.4,4,2.3c-7.8,4.2-14.9,2.3-23.3,4.8c-6.1,8.4,7,6.4,9.4,10.4
		c-2.9,0.3-2.6-0.4-5.6-0.5c1.2,3.4,9.2-0.9,9.7,3.3c-3.6,1.9-8.4,2.8-8.7,7.5c4.7,1.1,7.4-4,11-4c-2.9-5.6,6.4,0.2,5.2,4.9
		c-0.5,1.5-3,1.4-2.1,4c4.3,0,11.9-3.1,10.2,3.7c-11.5,12.8-25,24-44.7,30.1c-3.5,5.8-25.6,6.4-26.3,14.9c-0.6,6.9,5.8,4.9,9.1,3.3
		c7.6-3.5,20.2-8.6,25.8-11.6c14.7-8,26.6-17.8,42.5-16.2c8.4,2.8,3.2,13.1,0.2,19c-2.5,4.9-3.8,6.8-8.7,7.5
		c-1.8,9.5-12.2,14.7-11.9,24.2c14.4-7.5,18.3-23.6,28.8-34.3c3.6-0.4,8.4-2.5,11.7-1.3c-2.1,4.2-3.2,9.2-5.6,13.1
		c4.4-3.4,4.4-10.3,8.4-14c8.4,10.2,4.5,29.5-0.6,40.3c-1.5,0.6,0.3-2.6-1.2-2c-1.2,3.6,2.3,3.6,3.1,7.3c0.7,0,1.6-0.3,1.7,0.4
		c9.5-4,4.1-20.3,9.5-27.7c0,1.3,0,2.6,0.7,3.2c3.9-0.6,4.6-0.6,7.2-2.4c3.6,6.1,10.8,8.3,14.6,14.1c1.1-1.3-1.4-4.4,0.9-5.5
		c4.4,1.7,8,7.1,11.5,8c2.4,4.2,3.7,9.8,7.2,12.8c-2.1-7.9-7.4-19.8-12.8-24.1c0.7-3.1-0.9-6.3,2.5-7.9c-0.4,1.1-0.9,2.1-1,3.4
		c1.4,0.5,2.7-1.5,2.8-0.3c0.1,3.5,2.8,1.6,0.7,3.7c3.5,0.8,3.7-5.3,5.3-7.7c1,1.5,0.8,4.3,3,4.6c-0.8-4.7-4.3-12.9-7-19.9
		c-1.5-4-4.3-10.7,1.7-12.2c4.6-1.1,4.5,4,8.6,5c1.6-2.1-3.5-3.1-1.9-5.2c6.9,0.1,12.2,5,16.6,9.6c6.3,6.6,12.8,15.5,23.5,12.1
		c0.9-2.8,1.1-5.6,0.2-8.7c-5.3-2.8-9.9-8.2-15.6-11.9c-4.5-2.9-11-3.8-11-9.1c2,0.9,3.5,2.5,6.3,2.6c-0.9-4.9-11-4.2-13.3-9.4
		c4.9-2,6.5,4.4,11.9,3.6c-2-5.1-9.8-3.7-12.1-8.4c3.7-3,6.4-6.9,10.8-9.4c7.1,0.1,14.5-0.5,21.8-0.8c-3.7-3.4-14.5,1.3-17.5-2.9
		c4.9-0.3,9.7-0.7,9.3-5.4c-1.1-3.1-6.1-1.8-9.6-2.2c-1.9-2.4-2.2-4.7-2.6-7.9c-3-1-7.9-1.3-7.5-4.6c-3.5,0.1-4.6,1-6.2-0.9
		c0.3-5,4.2-7,7.5-9.5c3.1-7.9,10-12.7,15.5-18.6c4.8-2,9.2-4.2,10.8-8.8c-8.9,2.2-13.4,8.2-22.1,7.9c-1.2,1.3-1,3.7-2,5.1
		c-7.9,1.6-22.2,14.3-25,4.4c-1.8-6,2.6-6.5,3.5-11.3c-0.5-0.9-1.3-1.6-2.3-1.9c0.7-3.8,3-6.2,2.9-10.7
		C1784.8,830.1,1781.4,833,1782.5,835.2z M1787.9,952.2c-1.6,1.3-4.5,1.5-6.7-0.3c2.9-3.7-1.6-7.7-0.4-10.8
		C1785.4,942.1,1785.3,948.7,1787.9,952.2z M1775.5,949.8c-1.3-0.4-1.9-1.7-1.8-3.6C1774.5,947,1775.7,947.6,1775.5,949.8z
		 M1769,943.4c1.2-0.2,0.1-2.3,0.4-3.3c2.6,1.6,2.6,6.1,3.7,9.4c-1,0.7-2.6,1-3.9,1.5c-2.2-2.4-7.3-8.2-3.3-12.1
		C1767.7,939.6,1768.7,941.1,1769,943.4z M1761.8,943.7c-2.2,2.2-4.8,4.1-5.3,7.7c-9.3,1.6-7.8-9.7,0.1-10.4c1.3-1,1.5-3,2.6-4.1
		C1761.7,937.3,1759.7,942.8,1761.8,943.7z M1807.2,945.1c1.5,3.1,3.2,5.8,5.9,7.5C1814.2,949.5,1807.1,945.2,1807.2,945.1z
		 M1820.3,924c-0.7-1.9-3.1-1.8-4.6-2.7C1816.4,923.1,1818.9,923.1,1820.3,924z"/>
	<path class="st1" d="M1684.3,977.8c-5.7-1.1-6.4,7.8-4.1,9.7c2,1.6,4.6,1.9,6.4,0.5C1690.6,984.8,1688,980.7,1684.3,977.8z
		 M1635.5,957.4c1.9,1.9,4.5,1.9,5.5,0.5C1643.4,954.8,1635.3,952.5,1635.5,957.4z M1690.5,982.2c0-2.1,1.3-4.5-0.2-6.3
		C1689.6,978.2,1689.4,980.3,1690.5,982.2z M1758.9,995.2c-7.3,2,3.6,7.3,2.3,1.1L1758.9,995.2z M1641.1,939.7
		c0.9,1,2.9,1.9,4.1,1.2C1648.2,938,1641.2,935.9,1641.1,939.7z M1706.1,963.9c2.6-1.3,4.9-3.7,7.3-5.6c-3,0.5-5.4,3.4-8.1,4.8
		C1705.7,963.3,1705.5,963.7,1706.1,963.9z M1760.6,962.2c0.2,0.6,1,1.8,2,1C1761.9,963,1761.5,961.6,1760.6,962.2z M1668,912.9
		c1.7,1,3.1,0.9,4.1-0.6C1670.4,911.7,1669,911.7,1668,912.9z M1783.8,966.8c0.5-1.9-0.8-3.5-2.6-4.9
		C1781.2,963.7,1782.3,965.2,1783.8,966.8z M1700,911.1c2.2,1.5,6.7,2.7,9.3,2.6C1706.1,913.1,1702.4,911.2,1700,911.1z
		 M1721.6,885.4c-0.4-1.7-1.7-3.1-3.9-4.4C1717.4,882.8,1720.5,883.9,1721.6,885.4z M1818.4,930.2c1.2-0.4,1-1.9,0.6-2.6
		C1818.4,928.5,1817.2,929.6,1818.4,930.2z M1714.9,869.5c2.8,1.6,5.4,0.9,6.2-1C1722.7,864.3,1712,864.2,1714.9,869.5z
		 M1814.9,916.8c0.5-0.9,1.5-0.1,1.9-1.3C1815.9,914.8,1813.6,916.6,1814.9,916.8z M1733,877.4l0.6-0.8c-0.7-0.4-1.3-0.5-1.7-0.1
		C1732.2,876.8,1732.2,877.2,1733,877.4z M1800.5,905.3c-0.2,0.3-0.6,0.7-0.3,1c3.5-1.9,7.8-1.2,10.9-4.3
		C1807.3,902.2,1804.1,904.3,1800.5,905.3z M1734.3,868.9c-0.7-0.9-2-1.3-3.2-1.2l-1,1.3C1730.9,870.6,1733.3,871.4,1734.3,868.9z
		 M1713.9,854.1c0-0.8,0.1-1.7-1.5-2.2c-1,0.1-2,0.4-2.6,1.7C1710.4,855,1712.6,855.6,1713.9,854.1z M1751.8,870.4
		c0.8-0.8,0.6-1.3-0.5-1.7c-0.5,0.2-1,0.5-1.3,1.2C1750.7,870.5,1751,869.9,1751.8,870.4z M1799.3,881c0.9-0.6,2.4-0.8,3.3-1.3
		c1.8-1.2,2.8-2.8,4.2-3.8c-6.1,1.8-11,7.3-16.3,11.5c0.7,0.2,0.5,0.7,1.1,0.9C1794.9,887.7,1796.3,883.1,1799.3,881z M1819.4,889.2
		c-0.7-1.5-1-3.1-1.4-4.7c-3.1-2-4.8-3.1-8.2-3.5c-2.2,1.9-5.3,1.3-7.9,2.1c0.7,2.6,0,5.5,0.2,8.1
		C1807.1,896.6,1816.6,896.4,1819.4,889.2z M1776.5,870.5c-1-0.4-0.6-1.1-1.6-1.5c-1.2,0-2.4,0.2-3.1,1.8
		C1772.2,873,1776.6,873,1776.5,870.5z M1800.7,882.1c-0.3,0.8-2.9,1.1-1.4,1.9C1799.5,882.9,1801.4,883,1800.7,882.1z
		 M1777.3,956.7c1,1.6,1.8,3.3,3.2,4.8C1780.6,960,1777.6,956.7,1777.3,956.7z M1809.3,940c-0.6,0.8-0.1,1.4-0.2,2.1
		c1.2,0.7,2.1,0.7,2.8-0.1c0.5-0.8-1.3-1.1-0.3-2C1810.3,940.1,1811.3,940.8,1809.3,940z M1730,895.2c-0.5-0.1-0.6-1.3,0.3-1
		c1,1,4.6,3.4,1.2,3.8c-1.3-0.4-0.2-2.5-2.1-2.1c0.7,0.6,0.9,1.3,0.7,2.1c-1.3,0.3-3-0.6-4.6-1.1c-3.1,4.5-10.2-2.5-13.3,0.2
		c-3.7,3.3,8,7.8-0.3,11.9c0.4,0.4,0.5,0.8,0.4,1.3c2.3,1.5,3.9,0.9,6.1,2.2c-0.4,0.9-1.2,0.5-1,1.3c1.6,0.2,2.5,0.2,1.9,1.6
		c-1.3,0.8-3.4-1.1-4.5,0c4.6,1.2,9.3,3.1,5.6,7c-6.6-0.3-12.2,2.6-18.2,2.6c-3,0-6.2,0-8.1,2.3c0.7,5.1,7.4,1.2,11.6,3.7
		c5,0.5,9-2,14.1-1.3c-0.9,0.2-2,1.7-0.7,2.2c1.8,0.6,1.4-2.2,1.9-2c1.8,1.1-0.6,2.3-0.9,3.6c-0.3,1.8,0.9,3.5-2.1,5.2
		c-1,0-2.2-0.5-3.3-0.5c-0.7,1.7-4.9,3.1-2.2,4.8c1.1,0,1.8-1.5,3.1-1.1c-0.8,4.8-5,7.3-7.1,11.9c2.4,5.3,6.8-1.1,10.2-1
		c-1,1.4-1.3,1-2.7,2.4c2.5,0.5,3.4-4.4,6.1-3.3c-0.4,2.2-1.9,4.6,0.8,6.2c2.7-1.7,0.8-4.5,2.4-6.2c-4.6-0.5,2.9-2.8,5.1-0.8
		c0.7,0.7-0.5,1.8,1.5,2.2c1.8-1.9,3.3-6.3,6.6-3.4c2.8,9.1,3.7,18.6-1.2,29.3c1.9,3.3-7.1,13.4-2.3,16.4c3.9,2.4,5.4-1.1,5.9-3
		c1.1-4.5,3.5-11.7,4.1-15.1c1.5-9,0.8-17.4,8.5-24c5.3-2.9,9.2,2.7,11.4,5.8c1.9,2.6,2.4,3.8,0.8,6.2c4.9,3.8,3.6,10,9.3,12.8
		c1.7-8.7-6.3-15.5-8.1-23.5c1.3-1.7,2.1-4.5,4.2-5.6c1.6,2.2,4.1,4.3,5.4,6.6c-0.1-3-4.2-5.2-4.8-8.1c9.6-0.6,19.5,7.2,23.8,12.8
		c-0.3,0.8-1.4-0.9-1.7-0.1c1.6,1.6,3.1,0.1,5.7,0.9c0.3-0.3,0.5-0.8,0.9-0.6c1.6-5.5-10.4-8.2-12.5-12.9c0.8,0.4,1.6,0.8,2.2,0.7
		c1.3-1.9,1.6-2.3,1.6-4c5.2,0.3,9.5-2.2,14.7-2.1c-0.3-0.9-3.2-0.7-2.9-2.1c2.9-1.4,7.6-1.3,9.7-2.7c3.6,0.2,7.4,1.4,10.7,0.8
		c-5.6-1.5-15-2.8-19.8-1.8c-1.6-1.3-4.2-1.6-3.7-3.6c0.5,0.5,0.9,1,1.6,1.5c0.9-0.5,0.2-1.7,1-1.3c2.1,1,2.2-0.7,2.5,0.8
		c2-1.3-1.6-3.3-2.3-4.7c1.3,0,2.9,1,4,0.1c-3.2-1.1-9.5-2.1-14.8-3.1c-3.1-0.6-8.2-1.4-6.5-4.6c1.3-2.4,4.3-0.8,6.7-2.3
		c-0.6-1.4-3.3,0.6-3.9-0.8c3-3.1,8.2-3.9,12.8-4.4c6.7-0.8,14.7-0.9,17.2-6.7c-1.3-1.3-2.9-2.3-5.1-2.8c-3.9,1.5-9.1,1.8-13.7,3.3
		c-3.6,1.1-6.9,3.7-10.1,2.1c1.4-0.6,3-0.8,4.2-2c-3.3-1.1-7.2,3.6-11.3,3c0.9-2.8,5.4-1.5,7.2-4.2c-3.9-0.7-6.4,3.2-10.2,2.8
		c-0.2-2.6-1.4-5-1-7.7c3.1-3.2,5.9-6.6,8.8-10c-3.6,0.6-5.4,6.9-9.2,6.9c1.9-2.3,3.8-4.6,0.8-5.8c-2.3-0.5-3.7,2.2-5.4,3.6
		c-2.3,0.1-3.7-0.5-5.8-1.3c-1.9,1-4.2,3.1-5.9,1.9c-1.5,1.6-1.4,2.4-3.2,2.5c-2.9-1.7-2.4-4-2.5-6.3c-3.4-3.8-3.3-8.4-4.5-12.7
		c0.9-2.8,1.4-5.4-0.6-7.6c-2.5,4.6-0.9,8.5-4.7,12.3c0.2,0.9,1.8,1.6,2.2,2.5c-2.4,4-1,14.3-8,12.5c-4.3-1.1-2.8-3.2-5.2-5.1
		c-0.8-0.1-1.5,0.1-2.1,0.4c-1.9-1.5-2.4-3.3-5.1-4.6C1727.9,892.6,1728.2,895.1,1730,895.2z M1802,929.2c0.1,1.1-1,2.5-3.1,2.9
		c-1-2.4-5.2-1.7-6.6-3.2C1794.9,927.2,1798.8,929.3,1802,929.2z M1795.2,934c-0.8,0.5-1.8,0.3-2.9-0.3
		C1793.2,933.6,1794,933.2,1795.2,934z M1788.7,934.9c0.4-0.6-1.3-0.8-1.8-1.2c2.1-0.7,4.8,0.7,7.2,1.2c0,0.7-0.5,1.5-0.7,2.2
		c-2.3,0.2-8,0.7-8.6-2.3C1785.9,934.3,1787.2,934.3,1788.7,934.9z M1785.8,938.2c0.3,1.7,0.4,3.4,2.3,4.7c-3,4.7-9.1,0.4-6.1-3.3
		c-0.1-0.9-1.1-1.6-1.3-2.5C1781.9,936.2,1784.4,938.9,1785.8,938.2z M1806,918.4c2.5,0.3,4.8,0.4,7-0.3
		C1811.6,916.7,1806,918.5,1806,918.4z M1799.1,906c-1.4-0.3-2.4,0.8-3.6,1.2C1796.9,907.5,1797.8,906.4,1799.1,906z"/>
</g>
<path class="st1" d="M398.9,193.5c8.2,1.8,9.4-10.9,6.2-13.6c-2.8-2.4-6.6-2.8-9.2-0.9C390.1,183.4,393.7,189.4,398.9,193.5z
	 M468.6,223.8c-2.7-2.8-6.4-2.8-7.9-0.8C457.2,227.4,468.8,230.9,468.6,223.8z M390.2,187.1c0,3-1.9,6.3,0.2,9
	C391.3,192.9,391.7,189.8,390.2,187.1z M292.1,166.8c10.6-2.7-4.9-10.5-3.3-1.6L292.1,166.8z M460.1,248.8c-1.2-1.5-4.1-2.8-5.8-1.8
	C449.8,251,459.8,254.2,460.1,248.8z M367.2,212.8c-3.8,1.7-7.2,5.1-10.7,7.7c4.4-0.7,7.8-4.7,11.9-6.7
	C367.8,213.5,368.1,213,367.2,212.8z M288.8,213.6c-0.2-0.8-1.4-2.6-2.8-1.4C286.8,212.5,287.4,214.4,288.8,213.6z M420.7,286.1
	c-2.5-1.5-4.4-1.3-5.9,0.7C417.1,287.8,419.2,287.9,420.7,286.1z M255.4,206.5c-0.7,2.7,1,5,3.7,7
	C259.1,211,257.5,208.7,255.4,206.5z M374.5,287.8c-3.1-2.2-9.5-4.1-13.3-4C365.9,284.8,371.2,287.7,374.5,287.8z M342.8,323.7
	c0.5,2.4,2.4,4.5,5.5,6.4C348.7,327.6,344.3,325.9,342.8,323.7z M204.6,257.5c-1.7,0.5-1.6,2.7-0.9,3.7
	C204.6,259.8,206.4,258.3,204.6,257.5z M351.9,346.5c-4-2.4-7.8-1.5-9,1.3C340.5,353.6,356,354.1,351.9,346.5z M209.3,276.5
	c-0.7,1.3-2.1,0.1-2.7,1.8C207.8,279.4,211.2,276.8,209.3,276.5z M326.1,334.8l-0.9,1.1c1,0.6,1.9,0.8,2.5,0.2
	C327.2,335.7,327.3,335.1,326.1,334.8z M229.7,293.3c0.3-0.5,0.9-1,0.4-1.4c-5,2.7-11.2,1.4-15.8,5.8
	C219.8,297.4,224.5,294.7,229.7,293.3z M324,346.7c1,1.4,2.9,1.9,4.6,1.7l1.5-1.9C328.9,344.4,325.5,343.3,324,346.7z M353,368.4
	c0,1.2-0.1,2.4,2.1,3.1c1.5-0.1,2.8-0.5,3.8-2.3C358,367.2,354.8,366.3,353,368.4z M298.9,344.3c-1.1,1.1-0.9,1.9,0.7,2.4
	c0.7-0.2,1.4-0.7,2-1.6C300.5,344.1,299.9,345,298.9,344.3z M230.8,327.8c-1.3,0.9-3.5,1-4.7,1.8c-2.6,1.7-4.1,3.9-6.2,5.3
	c8.8-2.3,16-10,23.8-15.9c-1-0.4-0.7-0.9-1.6-1.3C237.3,318.4,235.1,324.9,230.8,327.8z M202.1,315.7c1,2.2,1.3,4.5,2,6.7
	c4.4,2.9,6.8,4.6,11.7,5.3c3.3-2.7,7.6-1.8,11.4-2.7c-1-3.7,0.2-7.7-0.1-11.5C219.9,305.5,206.3,305.5,202.1,315.7z M263.3,343.4
	c1.5,0.6,0.8,1.6,2.3,2.2c1.8,0,3.5-0.2,4.6-2.4C269.5,339.9,263.2,339.8,263.3,343.4z M228.7,326.2c0.4-1.1,4.2-1.5,2.1-2.6
	C230.5,325.1,227.7,325,228.7,326.2z M264.5,220.9c-1.4-2.3-2.5-4.7-4.4-6.9C259.9,216.2,264.1,220.9,264.5,220.9z M218,243.8
	c0.9-1.1,0.2-2,0.4-3c-1.7-1-3-1.1-4,0.1c-0.8,1.1,1.9,1.6,0.4,2.8C216.6,243.5,215.1,242.6,218,243.8z M330.9,309.5
	c0.7,0.2,0.8,1.9-0.4,1.4c-1.4-1.4-6.5-5-1.6-5.5c1.9,0.6,0.2,3.6,2.9,3c-1-0.9-1.3-1.9-0.9-3c1.9-0.3,4.3,0.9,6.6,1.7
	c4.6-6.3,14.7,3.8,19.1,0.1c5.4-4.6-11.2-11.3,0.8-16.8c-0.5-0.5-0.7-1.2-0.5-1.8c-3.2-2.2-5.5-1.3-8.7-3.2c0.7-1.3,1.8-0.7,1.5-1.9
	c-2.3-0.4-3.5-0.3-2.7-2.4c1.9-1,4.8,1.7,6.5,0.1c-6.5-1.9-13.3-4.6-7.8-10.1c9.4,0.6,17.6-3.3,26.3-3.2c4.3,0.1,8.9,0.1,11.7-3.1
	c-0.9-7.3-10.6-1.9-16.7-5.6c-7.1-0.8-13.1,2.5-20.3,1.4c1.3-0.3,2.9-2.4,1.1-3.1c-2.6-0.9-2.1,3.1-2.8,2.8c-2.6-1.6,1-3.3,1.4-5.1
	c0.5-2.5-1.1-5,3.1-7.3c1.5,0,3.2,0.7,4.7,0.8c1.1-2.4,7.2-4.3,3.3-6.7c-1.6-0.1-2.6,2.1-4.4,1.5c1.4-6.8,7.4-10.3,10.6-16.7
	c-3.3-7.6-9.8,1.4-14.7,1.1c1.5-1.9,1.9-1.4,3.9-3.3c-3.6-0.8-5,6.1-8.8,4.5c0.7-3.1,2.9-6.5-0.9-8.8c-3.9,2.4-1.2,6.4-3.6,8.7
	c6.5,0.8-4.2,3.9-7.4,1c-1-1,0.7-2.5-2.1-3.1c-2.7,2.7-4.9,8.8-9.6,4.6c-3.7-13-4.8-26.5,2.5-41.5c-2.7-4.8,10.6-18.8,3.8-23.2
	c-5.5-3.5-7.8,1.4-8.5,4.1c-1.7,6.3-5.4,16.5-6.3,21.4c-2.4,12.8-1.6,24.6-12.9,33.8c-7.6,3.9-13.1-4-16.3-8.6
	c-2.6-3.8-3.4-5.4-0.9-8.8c-6.9-5.5-4.9-14.3-13.1-18.5c-2.7,12.4,8.6,22.2,11,33.6c-1.9,2.4-3.2,6.4-6.2,7.9
	c-2.3-3.2-5.8-6.2-7.6-9.5c0.1,4.3,6,7.5,6.6,11.6c-13.9,0.5-27.8-10.7-33.9-18.8c0.5-1.2,2,1.4,2.5,0.2c-2.3-2.4-4.5-0.2-8.1-1.4
	c-0.4,0.4-0.8,1.1-1.4,0.9c-2.5,7.7,14.7,11.9,17.6,18.6c-1.1-0.6-2.2-1.2-3.1-1c-2,2.7-2.3,3.2-2.4,5.6c-7.5-0.6-13.8,2.9-21.2,2.6
	c0.4,1.3,4.6,1.1,4.1,3.1c-4.3,1.9-11,1.7-14,3.5c-5.1-0.4-10.6-2.2-15.4-1.4c8.1,2.3,21.5,4.4,28.5,3.1c2.2,1.8,6,2.3,5.2,5.2
	c-0.6-0.7-1.2-1.5-2.3-2.2c-1.4,0.6-0.4,2.3-1.5,1.9c-3-1.5-3.1,1-3.6-1.3c-2.9,1.8,2.2,4.7,3.2,6.8c-1.9-0.1-4.2-1.5-5.7-0.2
	c4.5,1.6,13.7,3.2,21.3,4.8c4.4,0.9,11.8,2.3,9.2,6.7c-1.9,3.4-6.2,1-9.7,3c0.8,2,4.8-0.8,5.6,1.2c-4.4,4.3-11.9,5.3-18.6,5.9
	c-9.6,0.9-21.2,0.8-25,9c1.8,1.9,4.1,3.3,7.3,4.1c5.7-2,13.2-2.4,19.9-4.3c5.3-1.5,10.1-5.1,14.6-2.7c-2.1,0.8-4.3,1-6.1,2.7
	c4.7,1.7,10.4-4.9,16.3-3.9c-1.3,4-7.8,2-10.5,5.8c5.6,1.1,9.3-4.4,14.8-3.7c0.2,3.7,1.8,7.2,1.2,11c-4.5,4.4-8.6,9.2-13,13.9
	c5.2-0.7,8-9.6,13.5-9.5c-2.8,3.2-5.5,6.4-1.2,8.3c3.3,0.8,5.4-3,7.9-5c3.3-0.1,5.4,0.8,8.3,2c2.8-1.4,6.1-4.3,8.6-2.5
	c2.1-2.2,2.1-3.3,4.7-3.4c4.1,2.5,3.3,5.8,3.4,9c4.7,5.6,4.5,12,6.1,18.1c-1.4,3.9-2.2,7.7,0.7,10.8c3.7-6.5,1.5-12.1,7.1-17.3
	c-0.3-1.3-2.5-2.3-3.1-3.6c3.6-5.7,1.8-20.3,11.9-17.6c6.2,1.7,3.9,4.6,7.4,7.3c1.1,0.1,2.1-0.1,3.1-0.6c2.7,2.2,3.4,4.7,7.2,6.7
	C333.9,313.3,333.5,309.8,330.9,309.5z M228.2,259.3c-0.1-1.6,1.6-3.5,4.5-4c1.3,3.5,7.5,2.5,9.5,4.7
	C238.3,262.3,232.8,259.3,228.2,259.3z M238.1,252.7c1.2-0.6,2.6-0.4,4.2,0.5C241,253.3,239.8,253.8,238.1,252.7z M247.5,251.6
	c-0.6,0.9,1.9,1.2,2.5,1.8c-3,0.9-6.8-1.2-10.3-2c0-1,0.8-2.1,1.1-3.1c3.4-0.3,11.6-0.8,12.4,3.5
	C251.6,252.5,249.6,252.5,247.5,251.6z M251.8,246.9c-0.4-2.4-0.4-4.8-3.2-6.8c4.5-6.5,13.1-0.4,8.7,4.8c0.1,1.3,1.6,2.3,1.8,3.5
	C257.3,249.9,253.9,246,251.8,246.9z M222.1,274.5c-3.5-0.5-7-0.7-10.1,0.2C214,276.8,222.1,274.4,222.1,274.5z M231.8,292.3
	c2,0.4,3.5-1.1,5.2-1.6C235,290.3,233.5,291.8,231.8,292.3z"/>
<path class="st1" d="M1457.6,719.7c-1.1,3.3,5.1,4.6,7.8,6.9c0.6-1.1,1.4-1.5,2.2-1.9C1466.9,722.4,1460.1,715.3,1457.6,719.7z
	 M1367,859.5c4.9-4,12.2-1.1,15.8,4.1c1.9-2.3-1.4-3.3,1.2-5.8c9-0.3,11.2-14.2,14.6-19.4c-3.3-4.1-5.8-8.5-4.8-13.8
	c-5,0.5-8.4-3-10.6-7.5c-4.4,2.9-10.4-0.3-15.3,0.5c0,3.5-6.1,6.1-8.5,9c-3.6,8-0.9,14.3-3.2,22
	C1363.4,850.8,1365.2,853.8,1367,859.5z M1445.2,632.9c3,0.4,5.2-2.3,7.7-4c-3-2.3-5.5-2.3-8.1-2.7
	C1442.8,629,1442.7,631.3,1445.2,632.9z M1421.6,667.6c6.2,4.2,13.8-3.1,4.2-7.2C1423,660.5,1420.4,664.9,1421.6,667.6z
	 M1401.7,582.8c-4-1.9-9.5,2.1-9.6,7.2C1397.8,592.7,1403.5,588.7,1401.7,582.8z M1330.4,539.7c-1.3,3.1-0.6,5.6,0.7,8
	C1332.4,544.7,1331.7,542.1,1330.4,539.7z M1388.3,775.7c0.4-4.3-1.2-6.4,2.8-10.3c2.5,1.9,4.8,5.9,7,0.9
	c-5.2-5.3-12.4-10.5-8.9-19.5c-2.2-1.7-6.7-2.8-5.4-5.4c5.5-3,10-10.1,15.4-13.5c-1.6-3.9-3.5-7.7-1.2-12.7c4.4-3,10.6,1.2,14.4-4.4
	c0.4-2.1,0.3-4.2-2.1-5.6c-4.4-1.5-7.1,3.7-11.7,1.6c0.3-5.8-7.7-9.4-7.2-15.2c14-8.1,23.5-24.4,26.7-38.2
	c-7.7-6.3,4.7-13.7,0.2-20.5c4.3-1.9,19.8,0.1,14.8-5.2c-3.3,4.1-13.7,4-17.8,1.2c-4-2.7-2.6-7.3-5.4-10.9c-5.2-6.5-13-8-18.5-12.3
	c-0.5-1.7,1.7-4.1,1.2-5.8c-3.8-1.7-6.8-0.4-10.6-2c-1.9-5.4-4.7-10.6-5.4-16.3c-3.2,0.5-6.3,1.7-10,0.5
	c-3.6-8.4-16.1-10.6-22.9-8.4c-1.6-1.9-1.8-4.1-4.1-5.8c-4.2,3-8.1,7-13.6,4.9c-2.5-1.6-0.9-6.4-4.1-5.8c-3,5.4-7.4,12.9-15.6,4.7
	c-1.3,6-2.3,12.4-9.4,10.6c-1.7-1.6-3-6.9-4.9-6.2c3,5-2.2,11.4-7.1,12c-0.3,3,2.6,5.2,0.2,8.8c-2,4.7-5.7,2.3-8.2,4.8
	c-1.6,2.9,1.2,4.7-1.4,7.9c-1.8,2.5-5.2-0.9-6.8,2.4c2.4,2.8,6.6,5.1,3,9.4c-2.2,1.8-6.1-3-7.6,1.9l7.1,4.3c-1.6,2.5,0.5,4-1.7,6.6
	c-1.8,3.4-5.2,0.7-6.9,4.5c0.5,2.1,3.7,1.3,6.3,3.8c-0.1,5.5-0.4,11.5-5.3,16.4c2.1,4.3,5.5,4.3,9.4,7.8c2.5,6.9-1.8,15.5,3.4,21.6
	c1.3-2.8,3.5-2,5.2-3.4c8.9,2.7,3.9,9,7.3,13.1c2.3,0.2,3.7-3.1,6-2.9c3.8,2.2,8,4.3,7.3,7.7c-1.2,2.1-3,4.4-2.5,6.1
	c1.9,3.3,3.1,1.4,6,2.5c-1.1,3.7-2.1,7.4-3.3,11.1c3.3,1.9,1.3,5.1,5.7,6.7c5.3-2.4,5.7-8.4,7.2-14.1c2.1,0.1,3.3-2.8,5.8-0.8
	c0.6,6.8,7.3,3.4,9.7,3.7c3.3,0.3,10.8,3.1,13.3,4.8c12.4,8,3.4,18.3-7.5,23.7c1.7,6.3,1.6,15.4-1.5,20.8
	c5.9,6.2,6.7,15.2,18.4,19.8c3.3,1.3,6.5-1,9,1.1c4.6,3.9,0.6,9.6,4.5,12.5c0.1-4.3-1.6-8.2,0.1-13
	C1374.2,784,1383,786.6,1388.3,775.7z M1348.4,715.7c7.2,1.9,1.6,12.7,9.5,16.6c-0.4,1-1,1.3-1.7,1.1
	C1351.1,730.8,1349.2,721.7,1348.4,715.7z M1366,804.6c0.8,2.3,0.5,8.5,2.7,8.2C1367.9,810.4,1368.2,804.3,1366,804.6z"/>
<path class="st2" d="M894.7,273.7C889,275.7,898.5,278.7,894.7,273.7L894.7,273.7z M843.5,332.3c0.4,1,1.9,4.2,3.3,2.6
	C846.7,334,844.7,330.8,843.5,332.3z M857.6,343.8c2.7,3.1,7.8,2.3,9.9-2.4C868,329.8,851.3,336.4,857.6,343.8z M940.9,279.4
	c2-1.6,1.3-5,0.5-5.9C941.6,275.5,940.2,277.3,940.9,279.4z M943.9,302.9c0.1-2.3,1.5-4.4,2-6.6c0.8-1.2,1.2-0.8,2-2.2
	c-1.5-1.9,2.1-6.1-0.4-6.2C946.4,292.7,942.4,298.9,943.9,302.9z M993,330.6c-1.1-0.5-3.9-0.8-4.2,0.8
	C990.2,331.1,991.5,331.9,993,330.6z M973.8,351.2c1-1.1,1.1-2.3,0.9-3.5C974.1,348.8,972.9,349.9,973.8,351.2z M934.4,399.8
	c1.3-0.7,0.7-1.5,0.2-2.3C933.8,398.2,933.7,399,934.4,399.8z M1075.7,368c-1.6-2.8-4.9-1.4-7.3-1.5c-12.4-0.5-24.4-5.2-36.8-4.9
	c-6.9-1-13.4-3.4-20.3-4.6c-4-0.7-8.1-0.5-12-1.3c-6-1.3-11.8-3.3-17.4-3.8c-5.3-0.5-17.3,0.3-17.7-6.8c6.9-3.4,10.8-12.3,18.7-12
	c-1.6-1.4-2,0.1-3.1-2.3c-3.2,0.2-6.5,3-9.6,2.1c-0.2-2.2-3.3-4.6-3-6.7c7.1-1.2,16.3-5.3,21.4-12.1c-4.9,0.9-11.3,8.7-17,8.9
	c-0.3-0.9-0.1-1.8-1.2-2.8c-4.8-0.1-9.8,1.8-14.4-0.3c0.1-1.1,1.1-1.1,1.9-1.6c-0.6-1.3-1.4,0.5-2-0.5c2.5-3.1,3-7.8,5.4-11.6
	c2.4-3.7,7.5-7,6-11.6c-5,0.4-5.2,7.7-8.6,11.7c-0.7,0.8-1.9,1-2.8,1.8c-2.2,2.1-3.7,6.3-7,5.9c-0.2-4.4-1.6-9.3-0.6-13.6
	c0.4-1.6,2.3-3.6,0.7-5c-1.9,5.6-4.8,11.2-5.8,16.9c-7.9,4.3-10.2-3.3-11-9.2c-0.3-2.3-1.2-4.2-1.3-5.4c-0.3-2.1,0.9-4.6,0.9-6.7
	c-0.1-3.8-1-7.1-0.4-9.5c0.4-1.4,1.7-2.5,2.1-4c0.5-1.9-0.2-4.6,0-7.1c0.2-2.9,1.4-5.9,1.3-8.2c-0.1-1.8-1.4-3.4-1.6-5.2
	c-0.8-6,0.9-12.3-1.2-16.9c-1.3-0.7-2.7-0.2-4.3,1.4c-1,4.6,1,9.5,0,14.2c-0.3,1.4-1.7,2.7-1.8,4.3c-0.2,2.4,1.5,4,2.1,6.4
	c0.7,2.9-0.4,6.1-0.2,9.4c0.1,1.7,1.2,3.2,1.4,4.8c1,9.2-2.2,18.9-1.1,27.1c-1.8,1.8-1.7,5.1-4.9,5.8c-0.7-1.6-2.5-3.4-2-4.9
	c-4.3,2.8-8.3,2.7-12.1,0.5c-1.6-4.3-3.4-11.3-7.4-13.9c-3.5,2.3,0,5.4,1.1,7.8c2.9,5.9,5.6,14,0,17.4c-0.1,1.3,1.6,1.2,2.4,2.9
	c-0.4,2.6-4.5,4.2-6.6,4.5c-7,0.9-14.1-9.8-19.2-4c2,10.8,16.3,3.6,21.3,13.6c-0.1,3.6-1.9,9-6.8,6.8c-1.8,1.4,1.4,3.3-0.4,4.7
	c-0.8,1.5-1.3-0.4-2.1,0.7c0.4,0.5,1,1.1,0.2,1.5c-3.7,4.4-12.7,7.2-9.2,11.6c3.3-0.8,7-6.5,9.8-1.2c-1.7,4.5-7,4.5-10.4,7.7
	c-2.2,0.7-8.8,1.6-7.5,5.3c7.6,0.1,16-10.4,23.3-7.2c-0.2,3.7-4.3,9.9-7.3,13.3c-2.5,2.8-12.9,8.3-11.5,14.1
	c1.4,5.8,10,2.5,12.7-0.4c4.4-4.7,0.9-13.9,5.7-19c1.2-1.3,4.1-3.5,6.3-4.2c2-0.7,8.9-1.3,12.1-0.5c3.8,1,6.6,1.7,9.3,5.2
	c1.9,8.3,5.3,15.6,3.6,23.6c-0.6,2.9-3.5,6.3-0.2,8.8c3.1-0.9,2.8-4.4,2-6.6c1.2-4.3,1.9-8.7,2-13.1c1-1.3,2.2-2.6,3.9-3.8
	c2.3,0.1,4.5,0.3,6.9-1.5c1,0.1,0.8,1.6,2.1,2.5c1.2,0.2,2.5-1.1,3.6-0.3c5,4.4,7.2,9,11.2,13.9c3.7,4.4,2.7,9.3,5.4,13.4
	c2.9,4.5,3.5,7,6.6,9.7c2.3,0.2,3.6-1.4,4.1-3.5c-3.3-5.9-1.4-10.9-6.4-15.3c-1.1-1-3-1.2-4.2-2.4c-3.7-3.9-4.9-10.4-8.5-15.2
	c1.7-2.7,0-5.7-0.8-8.6c1.2-0.7,1.9,0,2.5-1.6c0.1-1.1-1.3-2.3-0.6-3.3c1.1,0,2.4-2.5,3.3-0.6c1.5-0.7-0.6-2.1,1.1-2
	c5,0.2,5.8,9.1,10.5,8.6c2.6-4.9-8.5-7.5-6.4-12c1.7,0.4,3.3,3.3,5.2,1.6c-1.7-2.7-5.4-2.2-7.6-4.5c-1.3-1.3-1.6-3.6-2.8-5.3
	c-0.5-0.6-4.2-2.5-2.6-4.3c0.6,0.5,0.4,2.3,1.6,1.9c-0.6-1.1-1.8-2.3-1.2-3.3c3.3-1.1,6.5,0.4,9.6,1.7c14-0.2,27.7,2.3,41.5,5.2
	c0.3,0.3,0.1,0.6,0.2,0.9c-0.4,0.4-0.6,0.7-0.7,1.1c1.3,1.5,0.4-1,1-1.4c6.6-1.2,12.5,2.3,18.8,4.2c6.8,2,15.7,1.7,23.1,2.8
	c5.5,0.9,11.2,1.1,16.4,2C1071.5,369.6,1074.6,372.1,1075.7,368z M941.5,240.7c-0.4-3,1.2-5.8,0.7-8.8
	C941,234.6,940.4,238.9,941.5,240.7z M940.6,261.6c-0.3-1.3,1-2.5,0-3.8C939.9,258.8,940.1,261.5,940.6,261.6z M899.7,338.2
	c-1.9-0.9-5.2-3.8-6.3-2.9C895.5,336.2,897.5,338.5,899.7,338.2z M860.2,295c1.4,1.1,2.7,1.2,3.5-0.3
	C862.2,293.6,861,293.6,860.2,295z M1037.5,427.9c0.4,1.3,1.2,1.1,2.6,2c1.2-0.8,2.6-1.1,3.6-2.7
	C1042,425.1,1038.9,425.3,1037.5,427.9z"/>
<path class="st2" d="M455.6,661.5C451.3,657.2,452.7,667,455.6,661.5L455.6,661.5z M380.7,640.5c-0.7,0.8-3,3.5-0.9,4.1
	C380.5,644.1,382.6,641,380.7,640.5z M376.4,658.2c-1.7,3.8,1.3,8,6.5,7.9C393.4,661.5,380.4,649.3,376.4,658.2z M470.4,705.6
	c2.3,1.1,5.1-1,5.5-2.1C474.2,704.5,471.9,704.1,470.4,705.6z M450.4,718.5c2.1-0.9,4.6-0.5,6.8-1c1.4,0.2,1.2,0.7,2.8,0.8
	c1.1-2.2,6.4-0.7,5.5-3C460.7,716.3,453.4,715.3,450.4,718.5z M446.5,774.7c0-1.3-0.9-3.8-2.6-3.4
	C444.9,772.4,444.8,773.9,446.5,774.7z M419.8,766.3c1.4,0.4,2.5,0,3.5-0.7C422,765.5,420.5,764.9,419.8,766.3z M358.9,751.6
	c1.2,0.8,1.7,0,2.2-0.8C360.1,750.4,359.4,750.6,358.9,751.6z M448.5,865.5c1.8-2.7-0.8-5-1.8-7.2c-4.9-11.4-5.8-24.2-11.5-35.3
	c-2.1-6.6-2.7-13.5-4.5-20.3c-1-3.9-3.1-7.5-4-11.4c-1.4-6-2.1-12.1-4-17.3c-1.9-5-7.7-15.5-1.5-18.9c6,4.7,15.7,4.4,18.9,11.7
	c0.6-2-0.9-1.8,0.8-3.8c-1.5-2.8-5.5-4.6-6.1-7.8c1.9-1.1,2.7-5,4.8-5.6c4.1,5.8,11.8,12.4,20.1,14.1c-2.9-4.1-12.7-6.5-15.4-11.5
	c0.7-0.7,1.6-0.9,2-2.3c-2-4.4-5.8-8.1-5.9-13.2c1-0.4,1.4,0.5,2.3,1c0.9-1.1-1-1.1-0.5-2c3.9,0.9,8.3-0.7,12.8-0.1
	c4.4,0.6,9.5,3.8,13,0.4c-2.5-4.3-9.2-1.4-14.3-2.8c-1.1-0.3-1.8-1.3-2.9-1.7c-2.8-1.1-7.3-0.7-8.3-3.8c3.9-2,7.7-5.5,12-6.4
	c1.6-0.3,4.2,0.5,4.8-1.5c-5.9,0.7-12.2,0.5-17.8,2c-7.3-5.2-1.4-10.6,3.5-13.9c1.9-1.3,3.3-2.9,4.3-3.5c1.8-1.1,4.5-1.2,6.4-2.1
	c3.4-1.7,6-4,8.4-4.4c1.4-0.3,3,0.4,4.5,0.2c1.9-0.3,4.1-2.1,6.4-3c2.7-1.1,5.9-1.3,7.9-2.4c1.6-0.9,2.4-2.7,3.9-3.7
	c5-3.3,11.5-4.5,14.7-8.4c0.1-1.5-1-2.6-3.1-3.2c-4.6,1.1-8.1,5-12.8,6.1c-1.4,0.3-3.2-0.4-4.6,0.2c-2.3,0.9-3,3.1-4.8,4.7
	c-2.3,1.9-5.7,2.3-8.6,3.9c-1.5,0.9-2.4,2.5-3.8,3.3c-7.8,4.9-18,6.1-24.9,10.7c-2.4-0.9-5.3,0.7-7.3-1.9c1.2-1.3,1.9-3.7,3.6-3.9
	c-4.3-2.7-6-6.3-5.6-10.8c3.2-3.3,8.7-7.9,9.4-12.7c-3.5-2.1-4.9,2.3-6.5,4.4c-4.1,5.1-10.2,11-15.7,7.5c-1.2,0.5-0.4,2-1.5,3.4
	c-2.5,0.8-5.7-2.3-6.9-4c-3.8-5.9,2.8-16.9-4.7-19c-8.9,6.5,3.8,16.3-3.1,25.1c-3.3,1.4-8.9,2.2-9.1-3.2c-2.1-1-2.4,2.6-4.4,1.7
	c-1.7-0.1-0.3-1.4-1.6-1.6c-0.3,0.6-0.5,1.3-1.3,0.8c-5.6-1.4-11.9-8.4-14.5-3.3c2.2,2.6,8.9,3.6,5.4,8.4c-4.8,0.4-7.1-4.3-11.4-6.1
	c-1.6-1.7-5.3-7.2-8-4.5c3.2,6.9,16.3,10,16.5,18c-3.4,1.4-10.8,0.4-15.1-0.9c-3.6-1.1-13-8.1-17.7-4.3c-4.6,3.7,2,10.1,5.9,11.3
	c6.2,1.9,12.9-5.2,19.6-3c1.7,0.6,4.9,2.2,6.5,3.8c1.5,1.5,5,7.5,5.6,10.8c0.8,3.9,1.3,6.7-0.7,10.6c-6.7,5.2-11.8,11.5-19.8,13.5
	c-2.8,0.7-7.1-0.4-8,3.7c2.2,2.4,5.2,0.6,6.8-1c4.4-0.8,8.7-2,12.7-3.9c1.6,0.3,3.3,0.9,5.1,1.8c0.9,2.1,1.6,4.2,4.3,5.6
	c0.3,0.9-1.1,1.4-1.4,3c0.3,1.1,2,1.7,1.8,3.1c-1.8,6.4-5.1,10.4-7.7,16.1c-2.4,5.2-7.2,6.4-9.8,10.6c-2.8,4.5-4.8,6.2-5.9,10.1
	c0.8,2.1,2.8,2.6,4.9,2.2c3.9-5.5,9.3-6,11-12.4c0.4-1.5-0.3-3.2,0.4-4.9c1.9-5,7.3-8.9,10-14.2c3.2,0.4,5.2-2.4,7.5-4.4
	c1.2,0.8,0.8,1.7,2.5,1.6c1-0.4,1.5-2.1,2.7-2c0.4,1,3.3,1.1,2,2.7c1.3,1,1.7-1.5,2.2,0.1c1.9,4.6-5.7,9.2-3.2,13.2
	c5.6,0.2,3.1-10.9,8.1-10.9c0.4,1.7-1.6,4.4,0.8,5.4c1.7-2.8-0.4-5.8,0.8-8.8c0.7-1.7,2.6-3,3.5-4.8c0.4-0.7,0.5-4.9,2.8-4.2
	c-0.2,0.7-1.9,1.4-1,2.3c0.8-1,1.3-2.6,2.5-2.5c2.4,2.5,2.4,6,2.6,9.4c6.2,12.5,9.8,26.1,13.1,39.7c-0.2,0.4-0.5,0.3-0.7,0.6
	c-0.5-0.3-0.9-0.2-1.3-0.1c-0.8,1.8,1.1-0.1,1.7,0.3c3.9,5.4,3.3,12.2,4.3,18.8c1.1,7,5.2,14.9,7.4,22c1.6,5.4,3.8,10.5,5.3,15.6
	C445.2,862.3,444.3,866.2,448.5,865.5z M505.5,689.5c2.5-1.6,5.7-1.5,8.3-3.1C510.9,686.4,506.7,687.7,505.5,689.5z M486.3,697.7
	c1-0.8,2.7-0.1,3.5-1.6C488.5,695.8,486.2,697.2,486.3,697.7z M399.6,693.7c0-2.1,1.2-6.3-0.1-6.9
	C399.6,689.1,398.3,691.9,399.6,693.7z M421.5,639.5c-0.4,1.8,0,2.9,1.8,3C423.7,640.7,423.1,639.7,421.5,639.5z M377.9,856.8
	c-1,0.9-0.5,1.6-0.7,3.2c1.3,0.7,2.1,1.9,4,2.1C382.5,859.6,380.9,856.9,377.9,856.8z"/>
<path class="st1" d="M1057.1,825.4c5.2,6.5,14.2-2.5,13.4-6.7c-0.7-3.6-3.4-6.4-6.6-6.5C1056.6,812,1055.6,818.9,1057.1,825.4z
	 M1092,892.9c-0.3-3.9-3.2-6.2-5.7-5.6C1080.9,888.4,1087.6,898.5,1092,892.9z M1054.3,814.9c-1.9,2.3-5.5,3.7-5.5,7.1
	C1051.6,820.1,1053.7,817.9,1054.3,814.9z M991.1,737.2c9.9,4.6,2.8-11.3-1.5-3.4L991.1,737.2z M1069.6,906.9c0-1.9-1.5-4.8-3.4-5.1
	C1060.2,902.1,1066,910.9,1069.6,906.9z M1020.3,820.3c-4.1-1.1-8.8-0.6-13.2-0.8c3.8,2.3,9,1.3,13.4,2.3
	C1020.2,821.2,1020.8,821.1,1020.3,820.3z M958.9,771.4c0.4-0.8,0.5-2.9-1.3-2.9C958.1,769.3,957.4,771.2,958.9,771.4z M1015.4,911
	c-1-2.7-2.6-3.8-5-3.1C1011.6,910,1013.2,911.4,1015.4,911z M937.6,744.9c-2.3,1.6-2.3,4.5-1.6,7.8
	C937.6,750.7,937.8,747.9,937.6,744.9z M978.6,883.1c-1.1-3.7-4.8-9.2-7.8-11.5C973.7,875.3,976,880.9,978.6,883.1z M931.3,891
	c-1.1,2.2-1,5,0.3,8.4C933.4,897.7,931.1,893.6,931.3,891z M865.9,752.3c-1.6-0.7-2.9,1.1-3.1,2.3
	C864.5,754.2,866.8,754.1,865.9,752.3z M924,914.3c-1.6-4.4-5.1-6.1-7.8-4.6C910.6,912.7,922.3,922.8,924,914.3z M857.6,770.1
	c-1.4,0.6-1.7-1.2-3.2-0.3C854.5,771.4,858.8,771.5,857.6,770.1z M911.4,889l-1.4,0.3c0.4,1.1,0.9,1.8,1.8,1.7
	C911.7,890.4,912,890,911.4,889z M862.7,795.9c0.5-0.2,1.4-0.2,1.2-0.8c-5.6-1.1-9.6-6-15.9-5.5
	C852.5,792.9,857.9,793.7,862.7,795.9z M902.1,896.9c0,1.7,1.1,3.3,2.4,4.2l2.3-0.5C907.5,898.3,905.5,895.2,902.1,896.9z M911,932
	c-0.7,0.9-1.6,1.8-0.3,3.8c1.2,0.9,2.5,1.4,4.4,0.6C915.6,934.2,913.8,931.5,911,932z M884.3,879.1c-1.6,0.1-1.9,0.9-1,2.3
	c0.7,0.3,1.5,0.4,2.6,0C885.6,880,884.6,880.3,884.3,879.1z M841.9,823.4c-1.6-0.2-3.3-1.4-4.8-1.6c-3.1-0.3-5.7,0.4-8.1,0.2
	c8.3,3.7,18.7,2.3,28.5,2.7c-0.5-0.9,0-1.2-0.4-2C852.8,820.2,847,823.9,841.9,823.4z M827.2,795.9c-0.6,2.3-1.8,4.3-2.7,6.4
	c1.6,5,2.4,7.8,5.7,11.4c4.2,0,7,3.4,10.5,5.1c1.5-3.5,5-5.9,7.2-9C847.5,799.2,836.9,790.6,827.2,795.9z M857.3,856
	c0.8,1.4-0.4,1.7,0.4,3.1c1.4,1.1,2.8,2,5.1,1C864.3,857.2,859.4,853.1,857.3,856z M841.2,820.9c1-0.6,4.2,1.5,3.3-0.7
	C843.3,821.1,841.3,819.3,841.2,820.9z M935.5,761.8c0.3-2.7,1-5.2,0.9-8.1C934.9,755.3,935.1,761.5,935.5,761.8z M885,750.2
	c1.4-0.3,1.4-1.4,2.1-2.1c-0.6-1.8-1.7-2.7-3.2-2.5c-1.3,0.4,0.5,2.4-1.5,2.4C884,749.1,883.5,747.4,885,750.2z M931.1,872.5
	c0.4,0.6-0.6,2-1.2,0.8c-0.2-2-1.9-7.9,2.2-5.3c1.1,1.7-2.1,2.9,0.4,4.2c-0.2-1.3,0.2-2.3,1.2-2.9c1.7,1,2.8,3.4,4,5.5
	c7.6-2,8.9,12.2,14.8,12.1c7.1-0.2-1.6-15.9,11.2-12.6c-0.1-0.8,0.2-1.3,0.7-1.8c-1.1-3.7-3.4-4.5-4.7-8c1.4-0.6,1.9,0.6,2.3-0.5
	c-1.6-1.8-2.5-2.5-0.6-3.6c2.1,0.4,2.7,4.3,5,4.2c-3.9-5.6-7.4-12,0.3-12.8c6.9,6.4,15.7,8.5,22.4,14.1c3.3,2.8,6.8,5.8,11,5
	c3.9-6.2-7-8.2-9.4-14.9c-5-5.1-11.7-6.3-16.6-11.7c1.2,0.6,3.7-0.1,2.8-1.7c-1.4-2.3-3.6,1.1-4,0.3c-1-2.9,2.8-1.9,4.3-3.1
	c2-1.6,2.3-4.6,7.1-3.7c1.1,1,2,2.6,3.2,3.5c2.4-1.2,8.3,1.2,6.8-3.1c-1.2-1.1-3.4,0-4.4-1.7c5.3-4.4,12.2-3.3,18.7-6.3
	c2.3-8-8.5-5.1-12.1-8.4c2.4-0.5,2.4,0.1,5.1-0.1c-2.3-2.9-7.7,1.6-9.7-2.1c2.5-2,6.4-3.2,4.8-7.4c-4.5-0.6-5,4.2-8.2,4.5
	c4.6,4.7-5.7,0.3-6.4-3.9c-0.2-1.4,2.1-1.5,0.3-3.8c-3.8,0.4-9.3,3.8-10.4-2.5c5.3-12.4,13-23.6,28.1-30.6c1-5.4,20.1-7.9,17.6-15.6
	c-2.1-6.2-6.9-3.8-9.2-2.2c-5.4,3.8-14.6,9.4-18.4,12.6c-9.9,8.4-16.8,18.1-31.3,18.1c-8.4-1.8-7.6-11.4-7.2-16.9
	c0.3-4.6,0.8-6.3,4.8-7.4c-1.9-8.6,5.2-14.2,1.5-22.6c-9.9,7.9-7.3,22.6-12.7,33c-3,0.6-6.5,2.9-9.8,2.2c0.2-4-0.6-8.5,0.1-12.2
	c-2.6,3.4-0.1,9.6-2.2,13.2c-11.1-8.4-14.8-25.9-14.4-36c1.1-0.6,0.7,2.3,1.8,1.7c-0.3-3.3-3.3-3-5.4-6.2c-0.6,0-1.3,0.4-1.6-0.2
	c-6.8,4.4,3.9,18.5,1.9,25.5c-0.5-1.2-1-2.3-1.8-2.8c-3.2,0.8-3.8,1-5.4,2.8c-5.4-5.2-12.5-6.4-18-11.4c-0.5,1.2,2.8,3.8,1.3,5
	c-4.5-1.2-9.6-5.6-13.1-6.1c-3.7-3.6-6.9-8.4-11.1-10.8c4.8,6.9,13.8,17,20.1,20.4c0.6,2.8,3.2,5.6,0.7,7.3c0-1,0-1.9-0.4-3.1
	c-1.4-0.4-1.8,1.6-2.3,0.5c-1.4-3.1-3-1.2-2-3.3c-3.4-0.4-1.3,5-1.8,7.3c-1.4-1.3-2.3-3.8-4.3-3.8c2.5,4.1,8.6,11.1,13.5,17.1
	c2.8,3.5,7.7,9.2,3,11c-3.6,1.4-5.4-3.2-9.4-3.7c-0.6,2,4.2,2.5,3.6,4.5c-6.1,0.5-12.6-3.4-18.1-7.1c-8-5.4-16.9-12.8-25.1-8.7
	c0.3,2.6,1.1,5.1,3,7.8c5.7,2,11.7,6.5,18.1,9.2c5,2.2,11,2.4,13,7.2c-2.1-0.7-4-2-6.5-1.7c2.6,4.3,11.2,2.8,15.1,7.2
	c-3.5,2.2-7.3-3.3-11.8-2.2c3.7,4.4,10,2.4,13.8,6.5c-2.2,3-3.1,6.7-6,9.3c-6.3,0.5-12.5,1.7-18.9,2.6c4.5,2.7,12.3-2.4,16.4,1.1
	c-4.2,0.7-8.3,1.4-6.2,5.6c2.1,2.7,6,1.1,9.3,1.1c2.6,2,3.7,4,5.2,6.8c3,0.7,7.5,0.5,8.3,3.5c3-0.4,3.7-1.3,5.8,0.3
	c1.6,4.5-1.1,6.6-3,9.1c0.2,7.3-4.1,12.2-6.7,17.9c-3.5,2.2-6.5,4.6-6.3,8.8c7-2.7,8.8-8.4,16.5-9c0.6-1.2-0.5-3.4-0.1-4.7
	c6.4-2.1,14.2-14.6,20.3-6.1c3.8,5.2,0.1,6,1.1,10.3c0.8,0.8,1.7,1.3,2.7,1.5c0.7,3.4-0.4,5.8,1.4,9.8
	C931,877.2,932.9,874.3,931.1,872.5z M883.1,768.6c1-1.3,3.4-1.7,6-0.3c-1.2,3.5,4.2,6.7,4.4,9.6C889,777.4,886.7,771.5,883.1,768.6
	z M894.9,769.7c1.3,0.2,2.3,1.3,2.9,3.1C896.8,772.1,895.5,771.7,894.9,769.7z M902.9,774.8c-1,0.3,0.7,2.1,0.9,3
	c-2.9-1.2-4.6-5.2-6.8-8c0.6-0.7,1.9-1.1,2.8-1.7c2.8,1.9,9.5,6.7,7.4,10.5C905.5,778.1,904,776.9,902.9,774.8z M909.2,774
	c1.2-2.1,2.7-4,1.8-7.3c7.6-2.2,10.4,8,3.7,9.2c-0.7,1-0.2,2.8-0.8,3.9C911.6,779.7,911.4,774.5,909.2,774z M868.8,776.6
	c-2.4-2.6-5-4.9-8-6.2C861,773.2,868.8,776.5,868.8,776.6z M865,796.5c1.3,1.6,3.4,1.3,5,2.1C868.8,797,866.7,797.2,865,796.5z"/>
</svg>
